<svg xmlns="http://www.w3.org/2000/svg" xmlns:xlink="http://www.w3.org/1999/xlink" width="108" height="108" viewBox="0 0 108 108">
  <defs>
    <filter id="Trazado_896985" x="0" y="0" width="108" height="108" filterUnits="userSpaceOnUse">
      <feOffset dy="3" input="SourceAlpha"/>
      <feGaussianBlur stdDeviation="3" result="blur"/>
      <feFlood flood-opacity="0.161"/>
      <feComposite operator="in" in2="blur"/>
      <feComposite in="SourceGraphic"/>
    </filter>
  </defs>
  <g id="Grupo_1178705" data-name="Grupo 1178705" transform="translate(-200.733 -1046.5)">
    <g id="Grupo_1178525" data-name="Grupo 1178525" transform="translate(-0.025 -2169.5)">
      <g id="Grupo_1177410" data-name="Grupo 1177410" transform="translate(-0.094 1727.448)">
        <g id="Grupo_1176700" data-name="Grupo 1176700" transform="translate(209.853 1494.552)">
          <g id="Grupo_1111318" data-name="Grupo 1111318" transform="translate(0 0)">
            <g id="Grupo_1109826" data-name="Grupo 1109826">
              <g id="Grupo_1098742" data-name="Grupo 1098742">
                <g transform="matrix(1, 0, 0, 1, -9, -6)" filter="url(#Trazado_896985)">
                  <g id="Trazado_896985-2" data-name="Trazado 896985" transform="translate(9 6)" fill="#f2ecfd" opacity="0.859">
                    <path d="M 45 88.00010681152344 C 39.19416046142578 88.00010681152344 33.56304168701172 86.86346435546875 28.2630672454834 84.62177276611328 C 23.14290618896484 82.45613098144531 18.54409408569336 79.35540008544922 14.59441375732422 75.40570831298828 C 10.64472007751465 71.45601654052734 7.543986797332764 66.85721588134766 5.378333568572998 61.73704147338867 C 3.136640071868896 56.43708038330078 2 50.80596160888672 2 45.00011825561523 C 2 39.19416046142578 3.136640071868896 33.56304168701172 5.378333568572998 28.26308059692383 C 7.543986797332764 23.14290618896484 10.64472007751465 18.54409408569336 14.59441375732422 14.59441375732422 C 18.54409408569336 10.64472007751465 23.14290618896484 7.543986797332764 28.26308059692383 5.378333568572998 C 33.56304168701172 3.136640071868896 39.19416046142578 2 45 2 C 50.80583953857422 2 56.43695831298828 3.136640071868896 61.73691940307617 5.378333568572998 C 66.85709381103516 7.543986797332764 71.45590972900391 10.64472007751465 75.40558624267578 14.59441375732422 C 79.35527801513672 18.54409408569336 82.45601654052734 23.14290618896484 84.62166595458984 28.26308059692383 C 86.86335754394531 33.56304168701172 88 39.19416046142578 88 45 C 88 50.80596160888672 86.86335754394531 56.43708038330078 84.62166595458984 61.73704147338867 C 82.45601654052734 66.85721588134766 79.35527801513672 71.45601654052734 75.40558624267578 75.40570831298828 C 71.45590972900391 79.35540008544922 66.85709381103516 82.45613098144531 61.73693466186523 84.62177276611328 C 56.43695831298828 86.86346435546875 50.80583953857422 88.00010681152344 45 88.00010681152344 Z" stroke="none"/>
                    <path d="M 45 3.999992370605469 C 39.46327590942383 3.999992370605469 34.09429168701172 5.083465576171875 29.04218292236328 7.220329284667969 C 24.160400390625 9.285148620605469 19.77527618408203 12.24195861816406 16.00861358642578 16.00862121582031 C 12.24196624755859 19.77528381347656 9.28515625 24.16040802001953 7.2203369140625 29.04217529296875 C 5.083473205566406 34.09428405761719 4 39.46328353881836 4 45.00011444091797 C 4 50.53683853149414 5.083473205566406 55.90582275390625 7.2203369140625 60.95793151855469 C 9.28515625 65.83971405029297 12.24195098876953 70.22482299804688 16.00861358642578 73.99148559570312 C 19.77527618408203 77.75814819335938 24.160400390625 80.71494293212891 29.04216766357422 82.77976226806641 C 34.09427642822266 84.9166259765625 39.46327590942383 86.00009918212891 45 86.00009918212891 C 50.53672409057617 86.00009918212891 55.90572357177734 84.9166259765625 60.95783233642578 82.77976226806641 C 65.839599609375 80.71494293212891 70.22472381591797 77.75814819335938 73.99138641357422 73.99148559570312 C 77.75804901123047 70.22482299804688 80.71484375 65.83971405029297 82.7796630859375 60.95793151855469 C 84.91651916503906 55.90582275390625 86 50.53683853149414 86 45.00000762939453 C 86 39.46328353881836 84.91651916503906 34.09428405761719 82.7796630859375 29.04217529296875 C 80.71484375 24.16040802001953 77.75803375244141 19.77528381347656 73.99138641357422 16.00862121582031 C 70.22472381591797 12.24195861816406 65.839599609375 9.285148620605469 60.95781707763672 7.220329284667969 C 55.90570831298828 5.083465576171875 50.53672409057617 3.999992370605469 45 3.999992370605469 M 45 -7.62939453125e-06 C 69.85281372070312 -7.62939453125e-06 90 20.14719390869141 90 45.00000762939453 L 90 45.00011444091797 C 90 69.85292816162109 69.85281372070312 90.00009918212891 45 90.00009918212891 C 20.14718627929688 90.00009918212891 0 69.85292816162109 0 45.00011444091797 L 0 45.00000762939453 C 0 20.14719390869141 20.14718627929688 -7.62939453125e-06 45 -7.62939453125e-06 Z" stroke="none" fill="#8454ee"/>
                  </g>
                </g>
              </g>
            </g>
          </g>
        </g>
      </g>
    </g>
    <g id="budget_781760_1_" data-name="budget_781760 (1)" transform="translate(226.438 1069.693)">
      <path id="Trazado_1033659" data-name="Trazado 1033659" d="M138.817,17.459V50.276c0,.065,0,.131,0,.2a4.237,4.237,0,0,1-4.233,4.039H110.76a4.237,4.237,0,0,1-4.237-4.236v-38a4.231,4.231,0,0,1,4.237-4.237h18.921a4.223,4.223,0,0,1,1.84.422c1.145.551,1.467,1.247,3.524,3.35,2.367,2.57,2.931,2.833,3.414,3.946A4.19,4.19,0,0,1,138.817,17.459Z" transform="translate(-94.463 -7.17)" fill="#ffc477"/>
      <path id="Trazado_1033660" data-name="Trazado 1033660" d="M165.7,17.459V50.276c0,.065,0,.131,0,.2a4.25,4.25,0,0,1-.957.108h-23.82a4.237,4.237,0,0,1-4.237-4.236v-38c0-.067,0-.132,0-.2a4.257,4.257,0,0,1,.957-.108h18.921a4.243,4.243,0,0,1,3.1,1.345l2.268,2.427,2.6,2.717a4.264,4.264,0,0,1,1.175,2.927Z" transform="translate(-121.349 -7.169)" fill="#ffdaaa"/>
      <path id="Trazado_1033661" data-name="Trazado 1033661" d="M277.949,180.884v23.822a5.988,5.988,0,0,1-5.988,5.988H256.4a5.988,5.988,0,0,1-5.988-5.988V180.884A5.985,5.985,0,0,1,256.4,174.9h15.559A5.987,5.987,0,0,1,277.949,180.884Z" transform="translate(-222.725 -155.899)" fill="#4cba68"/>
      <path id="Trazado_1033662" data-name="Trazado 1033662" d="M298.265,180.884v23.822a3.073,3.073,0,0,1-3.512,4.022H279.194a5.988,5.988,0,0,1-5.988-5.988V178.918a5.956,5.956,0,0,1,1.16-3.541,5.962,5.962,0,0,1,2.352-.481h15.559A5.987,5.987,0,0,1,298.265,180.884Z" transform="translate(-243.041 -155.899)" fill="#7ccc92"/>
      <path id="Trazado_1033663" data-name="Trazado 1033663" d="M360.628,366.865v2.8a.9.9,0,0,1-.894.9h-2.8a.9.9,0,0,1-.9-.9v-2.8a.9.9,0,0,1,.9-.9h2.8A.9.9,0,0,1,360.628,366.865Z" transform="translate(-316.877 -326.218)" fill="#2c733f"/>
      <path id="Trazado_1033664" data-name="Trazado 1033664" d="M307.6,209.009v3a1.931,1.931,0,0,1-1.931,1.931H290.228a1.931,1.931,0,0,1-1.931-1.931v-3a1.931,1.931,0,0,1,1.931-1.931h15.444A1.931,1.931,0,0,1,307.6,209.009Z" transform="translate(-256.493 -184.585)" fill="#1e81ce"/>
      <path id="Trazado_1033665" data-name="Trazado 1033665" d="M334.487,209.009v3a1.931,1.931,0,0,1-1.931,1.931H320.389a1.931,1.931,0,0,1-1.931-1.931v-3a1.931,1.931,0,0,1,1.931-1.931h12.167A1.931,1.931,0,0,1,334.487,209.009Z" transform="translate(-283.378 -184.585)" fill="#3d9ae2"/>
      <g id="Grupo_1178701" data-name="Grupo 1178701" transform="translate(31.804 32.435)">
        <path id="Trazado_1033666" data-name="Trazado 1033666" d="M292.887,366.865v2.8a.9.9,0,0,1-.9.9h-2.8a.9.9,0,0,1-.9-.9v-2.8a.9.9,0,0,1,.9-.9h2.8A.9.9,0,0,1,292.887,366.865Z" transform="translate(-288.297 -358.652)" fill="#2c733f"/>
        <path id="Trazado_1033667" data-name="Trazado 1033667" d="M360.628,299.5v2.8a.9.9,0,0,1-.894.9h-2.8a.9.9,0,0,1-.9-.9v-2.8a.9.9,0,0,1,.9-.9h2.8A.9.9,0,0,1,360.628,299.5Z" transform="translate(-348.681 -298.608)" fill="#2c733f"/>
      </g>
      <path id="Trazado_1033668" data-name="Trazado 1033668" d="M429.185,299.5v2.8a.9.9,0,0,1-.9.9h-2.8a.9.9,0,0,1-.9-.9v-2.8a.9.9,0,0,1,.9-.9h2.8A.9.9,0,0,1,429.185,299.5Z" transform="translate(-377.987 -266.173)" fill="#ee8700"/>
      <g id="Grupo_1178702" data-name="Grupo 1178702" transform="translate(31.804 32.435)">
        <path id="Trazado_1033669" data-name="Trazado 1033669" d="M292.887,299.5v2.8a.9.9,0,0,1-.9.9h-2.8a.9.9,0,0,1-.9-.9v-2.8a.9.9,0,0,1,.9-.9h2.8A.9.9,0,0,1,292.887,299.5Z" transform="translate(-288.297 -298.608)" fill="#2c733f"/>
        <path id="Trazado_1033670" data-name="Trazado 1033670" d="M360.628,430.925v2.8a.9.9,0,0,1-.894.9h-2.8a.9.9,0,0,1-.9-.9v-2.8a.9.9,0,0,1,.9-.894h2.8A.9.9,0,0,1,360.628,430.925Z" transform="translate(-348.681 -415.756)" fill="#2c733f"/>
        <path id="Trazado_1033671" data-name="Trazado 1033671" d="M292.887,430.925v2.8a.9.9,0,0,1-.9.9h-2.8a.9.9,0,0,1-.9-.9v-2.8a.9.9,0,0,1,.9-.894h2.8A.9.9,0,0,1,292.887,430.925Z" transform="translate(-288.297 -415.756)" fill="#2c733f"/>
      </g>
      <path id="Trazado_1033672" data-name="Trazado 1033672" d="M429.185,367.3v8.689a1.527,1.527,0,0,1-1.527,1.528h-1.535a1.527,1.527,0,0,1-1.527-1.528V367.3a1.33,1.33,0,0,1,1.33-1.33h1.929A1.33,1.33,0,0,1,429.185,367.3Z" transform="translate(-377.987 -326.217)" fill="#ee8700"/>
      <g id="Grupo_1178703" data-name="Grupo 1178703" transform="translate(31.804 32.435)">
        <path id="Trazado_1033673" data-name="Trazado 1033673" d="M360.628,366.865v.832a.9.9,0,0,1-.894.9h-2.8a.9.9,0,0,1-.9-.9v-.832a.9.9,0,0,1,.9-.9h2.8A.9.9,0,0,1,360.628,366.865Z" transform="translate(-348.681 -358.652)" fill="#317f46"/>
        <path id="Trazado_1033674" data-name="Trazado 1033674" d="M292.887,366.865v.832a.9.9,0,0,1-.9.9h-2.8a.9.9,0,0,1-.9-.9v-.832a.9.9,0,0,1,.9-.9h2.8A.9.9,0,0,1,292.887,366.865Z" transform="translate(-288.297 -358.652)" fill="#317f46"/>
        <path id="Trazado_1033675" data-name="Trazado 1033675" d="M360.628,299.5v.832a.9.9,0,0,1-.894.9h-2.8a.9.9,0,0,1-.9-.9V299.5a.9.9,0,0,1,.9-.9h2.8A.9.9,0,0,1,360.628,299.5Z" transform="translate(-348.681 -298.608)" fill="#317f46"/>
      </g>
      <path id="Trazado_1033676" data-name="Trazado 1033676" d="M429.185,299.5v.832a.9.9,0,0,1-.9.9h-2.8a.9.9,0,0,1-.9-.9V299.5a.9.9,0,0,1,.9-.9h2.8A.9.9,0,0,1,429.185,299.5Z" transform="translate(-377.987 -266.173)" fill="#ff9811"/>
      <g id="Grupo_1178704" data-name="Grupo 1178704" transform="translate(31.804 32.435)">
        <path id="Trazado_1033677" data-name="Trazado 1033677" d="M292.887,299.5v.832a.9.9,0,0,1-.9.9h-2.8a.9.9,0,0,1-.9-.9V299.5a.9.9,0,0,1,.9-.9h2.8A.9.9,0,0,1,292.887,299.5Z" transform="translate(-288.297 -298.608)" fill="#317f46"/>
        <path id="Trazado_1033678" data-name="Trazado 1033678" d="M360.628,430.925v.833a.9.9,0,0,1-.894.9h-2.8a.9.9,0,0,1-.9-.9v-.833a.9.9,0,0,1,.9-.894h2.8A.9.9,0,0,1,360.628,430.925Z" transform="translate(-348.681 -415.756)" fill="#317f46"/>
        <path id="Trazado_1033679" data-name="Trazado 1033679" d="M292.887,430.925v.833a.9.9,0,0,1-.9.9h-2.8a.9.9,0,0,1-.9-.9v-.833a.9.9,0,0,1,.9-.894h2.8A.9.9,0,0,1,292.887,430.925Z" transform="translate(-288.297 -415.756)" fill="#317f46"/>
      </g>
      <path id="Trazado_1033680" data-name="Trazado 1033680" d="M429.185,367.3v6.724a1.527,1.527,0,0,1-1.527,1.528h-1.535a1.527,1.527,0,0,1-1.527-1.528V367.3a1.33,1.33,0,0,1,1.33-1.33h1.929A1.33,1.33,0,0,1,429.185,367.3Z" transform="translate(-377.987 -326.217)" fill="#ff9811"/>
      <path id="Trazado_1033681" data-name="Trazado 1033681" d="M343.6,19.22H338.29a1.629,1.629,0,0,1-1.629-1.629V11.924a4.232,4.232,0,0,1,1.256.923l2.269,2.427,2.6,2.717A4.194,4.194,0,0,1,343.6,19.22Z" transform="translate(-299.604 -10.629)" fill="#ffb655"/>
      <path id="Trazado_1033682" data-name="Trazado 1033682" d="M86.317,463.726a2.08,2.08,0,0,1-2.075,2.075H71.531a2.075,2.075,0,0,1,0-4.15H84.242A2.081,2.081,0,0,1,86.317,463.726Z" transform="translate(-61.422 -411.507)" fill="#aa6100"/>
      <path id="Trazado_1033683" data-name="Trazado 1033683" d="M86.317,425.521a2.08,2.08,0,0,1-2.075,2.075H71.531a2.075,2.075,0,0,1,0-4.15H84.242A2.081,2.081,0,0,1,86.317,425.521Z" transform="translate(-61.422 -377.451)" fill="#cc7400"/>
      <path id="Trazado_1033684" data-name="Trazado 1033684" d="M86.317,387.317a2.081,2.081,0,0,1-2.075,2.075H71.531a2.075,2.075,0,0,1,0-4.15H84.242A2.081,2.081,0,0,1,86.317,387.317Z" transform="translate(-61.422 -343.397)" fill="#ee8700"/>
      <path id="Trazado_1033685" data-name="Trazado 1033685" d="M86.317,349.111a2.081,2.081,0,0,1-2.075,2.075H71.531a2.081,2.081,0,0,1-2.075-2.075,2.08,2.08,0,0,1,2.075-2.075H84.242A2.081,2.081,0,0,1,86.317,349.111Z" transform="translate(-61.422 -309.341)" fill="#ff9811"/>
      <path id="Trazado_1033686" data-name="Trazado 1033686" d="M84.242,312.984H71.531a2.081,2.081,0,0,1-2.075-2.075h0a2.081,2.081,0,0,1,2.075-2.075H84.242a2.081,2.081,0,0,1,2.075,2.075h0A2.081,2.081,0,0,1,84.242,312.984Z" transform="translate(-61.422 -275.289)" fill="#ffa733"/>
      <path id="Trazado_1033687" data-name="Trazado 1033687" d="M24.792,384.09a6.751,6.751,0,0,0-7.036-6.465H15.11a6.76,6.76,0,0,0,.578,13.508h2.067v0c.189.008.379.009.571,0a6.87,6.87,0,0,0,1.256-.171,6.76,6.76,0,0,0,5.21-6.337v-.008C24.8,384.442,24.8,384.267,24.792,384.09Z" transform="translate(-7.197 -336.602)" fill="#cc7400"/>
      <path id="Trazado_1033688" data-name="Trazado 1033688" d="M71.98,386.074v.008a6.76,6.76,0,0,1-5.21,6.337,6.763,6.763,0,0,1-5.2-6.292c0-.015,0-.029,0-.045v-.008a6.762,6.762,0,0,1,5.209-6.819,6.762,6.762,0,0,1,5.206,6.293C71.987,385.725,71.987,385.9,71.98,386.074Z" transform="translate(-54.384 -338.06)" fill="#ee8700"/>
      <path id="Trazado_1033689" data-name="Trazado 1033689" d="M49.236,18.178H45.227V10.289a5.123,5.123,0,0,0-1.416-3.531l-2.59-2.71c-2.2-2.265-2.476-2.9-3.785-3.54A5.123,5.123,0,0,0,35.218,0H16.3a5.117,5.117,0,0,0-5.111,5.111V32.672H10.109A2.947,2.947,0,0,0,8.016,37.7,2.938,2.938,0,0,0,7.16,39.77a3.025,3.025,0,0,0,.058.583A7.433,7.433,0,0,0,8.28,55.173l14.539-.005a2.947,2.947,0,0,0,2.092-5.023,2.933,2.933,0,0,0,.852-1.929H26.87v.591a6.814,6.814,0,0,0,6.807,6.807H49.236a6.814,6.814,0,0,0,6.807-6.807V24.985A6.814,6.814,0,0,0,49.236,18.178ZM37.932,3.089l4.35,4.6s0,0,0,0h0l0,.005h0A.018.018,0,0,0,42.3,7.7l0,0s0,0,0,0,0,0,0,0,0,0,0,0H37.931V3.089ZM10.109,34.419H22.82a1.2,1.2,0,1,1,0,2.4H10.109a1.2,1.2,0,1,1,0-2.4Zm0,4.15H22.82a1.2,1.2,0,1,1,0,2.4H14.04a7.116,7.116,0,0,0-1.106-.4,7.365,7.365,0,0,0-1.747-.257c-.171,0-.343,0-.514,0H9.042a1.181,1.181,0,0,1-.134-.549A1.2,1.2,0,0,1,10.109,38.569ZM24.021,43.92a1.2,1.2,0,0,1-1.2,1.2H17.931a7.349,7.349,0,0,0-1.483-2.4H22.82A1.2,1.2,0,0,1,24.021,43.92ZM5.858,42.352a7.538,7.538,0,0,0-1.376,1.765H3.465A5.77,5.77,0,0,1,5.858,42.352Zm-3.323,3.4H3.807a7.542,7.542,0,0,0-.238,1.309H2.225A5.741,5.741,0,0,1,2.535,45.754Zm.141,4.33A5.731,5.731,0,0,1,2.266,48.7H3.6a6.592,6.592,0,0,0,.312,1.383Zm1.09,1.638c.536,0,.847,0,.921,0a7.378,7.378,0,0,0,1.175,1.422A5.772,5.772,0,0,1,3.766,51.722Zm7.454,1.814a5.8,5.8,0,1,1,3.671-10.059A5.79,5.79,0,0,1,11.22,53.536Zm11.6-.116H15.769a7.484,7.484,0,0,0,1.877-2.4H22.82a1.2,1.2,0,1,1,0,2.4Zm1.191-5.2a1.2,1.2,0,0,1-1.191,1.055H18.249a7.506,7.506,0,0,0,.106-2.4H22.82A1.2,1.2,0,0,1,24.011,48.216Zm2.859-1.747H25.293a2.9,2.9,0,0,0-.381-.474,2.942,2.942,0,0,0,0-4.15,2.942,2.942,0,0,0,0-4.15,2.951,2.951,0,0,0-2.092-5.023H12.934V5.111A3.368,3.368,0,0,1,16.3,1.747H36.184V8.591a.873.873,0,0,0,.874.874h6.319c.182.708.07.474.1,8.713h-9.8a6.814,6.814,0,0,0-6.807,6.807V46.468Zm27.535,2.338a5.174,5.174,0,0,1-5.169,5.169H33.677a5.175,5.175,0,0,1-5.169-5.169V24.985a5.175,5.175,0,0,1,5.169-5.169H49.236a5.174,5.174,0,0,1,5.169,5.169V48.807Z" transform="translate(0)"/>
      <path id="Trazado_1033690" data-name="Trazado 1033690" d="M286.478,206.4h-2.971a1.115,1.115,0,0,1-1.112-1.112v-3a1.115,1.115,0,0,1,1.112-1.112H298.95a1.113,1.113,0,0,1,1.112,1.112v3a1.113,1.113,0,0,1-1.112,1.112h-8.94a.819.819,0,1,0,0,1.638h8.94a2.753,2.753,0,0,0,2.75-2.75v-3a2.753,2.753,0,0,0-2.75-2.75H283.507a2.75,2.75,0,0,0-2.75,2.75v3a2.75,2.75,0,0,0,2.75,2.75h2.971a.819.819,0,0,0,0-1.638Z" transform="translate(-249.772 -177.864)"/>
      <path id="Trazado_1033691" data-name="Trazado 1033691" d="M282.471,364.656h2.8a1.716,1.716,0,0,0,1.714-1.714v-2.8a1.716,1.716,0,0,0-1.714-1.714h-2.8a1.717,1.717,0,0,0-1.714,1.714v2.8A1.717,1.717,0,0,0,282.471,364.656Zm-.076-4.512a.077.077,0,0,1,.076-.076h2.8a.077.077,0,0,1,.076.076v2.8a.077.077,0,0,1-.076.076h-2.8a.077.077,0,0,1-.076-.076Z" transform="translate(-249.772 -319.497)"/>
      <path id="Trazado_1033692" data-name="Trazado 1033692" d="M421.568,291.068h-2.8a1.716,1.716,0,0,0-1.714,1.714v2.8a1.716,1.716,0,0,0,1.714,1.714h2.8a1.716,1.716,0,0,0,1.714-1.714v-2.8A1.716,1.716,0,0,0,421.568,291.068Zm.076,4.512a.076.076,0,0,1-.076.077h-2.8a.077.077,0,0,1-.076-.077c.034-2.768-.071-2.874.076-2.874h2.8a.076.076,0,0,1,.076.077Z" transform="translate(-371.266 -259.452)"/>
      <path id="Trazado_1033693" data-name="Trazado 1033693" d="M282.471,297.295h2.8a1.716,1.716,0,0,0,1.714-1.714v-2.8a1.716,1.716,0,0,0-1.714-1.714h-2.8a1.717,1.717,0,0,0-1.714,1.714v2.8A1.716,1.716,0,0,0,282.471,297.295Zm-.076-4.512a.077.077,0,0,1,.076-.076h2.8a.077.077,0,0,1,.076.076v2.8a.077.077,0,0,1-.076.076h-2.8a.077.077,0,0,1-.076-.076Z" transform="translate(-249.772 -259.452)"/>
      <path id="Trazado_1033694" data-name="Trazado 1033694" d="M286.53,423.069a1.714,1.714,0,0,0-1.283-.578h-2.8a1.709,1.709,0,0,0-1.282.578,2.343,2.343,0,0,0-.432,1.747V427a1.717,1.717,0,0,0,1.714,1.714h2.8A1.716,1.716,0,0,0,286.961,427v-2.187A2.362,2.362,0,0,0,286.53,423.069Zm-1.283,4.011c-2.765-.034-2.875.071-2.875-.076,0-2.963-.033-2.874.076-2.874h2.8c.134,0,.051.187.076.687A11.649,11.649,0,0,1,285.246,427.08Z" transform="translate(-249.748 -376.6)"/>
      <path id="Trazado_1033695" data-name="Trazado 1033695" d="M421.133,358.428H419.2a2.152,2.152,0,0,0-2.149,2.149v8.689a2.349,2.349,0,0,0,2.346,2.347h1.535a2.349,2.349,0,0,0,2.346-2.347v-8.689A2.151,2.151,0,0,0,421.133,358.428Zm.511,10.839a.708.708,0,0,1-.708.709H419.4a.709.709,0,0,1-.708-.709v-8.689a.512.512,0,0,1,.511-.511h1.929a.512.512,0,0,1,.511.511v8.689Z" transform="translate(-371.265 -319.496)"/>
      <path id="Trazado_1033696" data-name="Trazado 1033696" d="M166.176,172.908h0c-1-.367-1.72-.632-1.72-1.557,0-.843.56-1.271,1.664-1.271,1.172,0,1.488.516,1.9.516a.787.787,0,0,0,.7-.807c0-.682-1.113-1.021-2.108-1.11v-.615a.776.776,0,1,0-1.552,0v.713a2.538,2.538,0,0,0-2.108,2.655c0,1.906,1.4,2.434,2.531,2.858,1.1.415,1.977.743,1.977,2,0,1.041-.578,1.569-1.719,1.569-1.669,0-1.685-1.127-2.322-1.127a.819.819,0,0,0-.712.807c0,.645.961,1.494,2.352,1.714v.594a.776.776,0,1,0,1.552,0v-.61a2.8,2.8,0,0,0,2.353-3.029C168.964,173.932,167.418,173.364,166.176,172.908Z" transform="translate(-144.544 -149.117)"/>
      <path id="Trazado_1033697" data-name="Trazado 1033697" d="M352.99,422.491h-2.8a1.714,1.714,0,0,0-1.283.578,2.352,2.352,0,0,0-.431,1.747V427a1.716,1.716,0,0,0,1.714,1.714h2.8A1.716,1.716,0,0,0,354.7,427v-2.8a1.716,1.716,0,0,0-1.713-1.713Zm0,4.589c-2.765-.034-2.875.071-2.875-.076v-2.8a.077.077,0,0,1,.076-.075h2.8a.076.076,0,0,1,.075.075C353.033,426.976,353.135,427.08,352.99,427.08Z" transform="translate(-310.134 -376.6)"/>
      <path id="Trazado_1033698" data-name="Trazado 1033698" d="M353.012,291.068h-2.8a1.716,1.716,0,0,0-1.714,1.714v2.8a1.716,1.716,0,0,0,1.714,1.714h2.8a1.689,1.689,0,0,0,.624-.118,1.717,1.717,0,0,0,1.09-1.6v-2.8A1.717,1.717,0,0,0,353.012,291.068Zm.075,4.512a.076.076,0,0,1-.075.077h-2.8a.077.077,0,0,1-.076-.077v-2.8c0-.147.1-.044,2.875-.077a.076.076,0,0,1,.075.077v2.8Z" transform="translate(-310.156 -259.452)"/>
      <path id="Trazado_1033699" data-name="Trazado 1033699" d="M353.636,358.546a1.688,1.688,0,0,0-.624-.118h-2.8a1.716,1.716,0,0,0-1.714,1.714v2.8a1.716,1.716,0,0,0,1.714,1.714h2.8a1.716,1.716,0,0,0,1.713-1.714v-2.8A1.716,1.716,0,0,0,353.636,358.546Zm-.548,4.394a.076.076,0,0,1-.075.077h-2.8a.077.077,0,0,1-.076-.077v-2.8a.077.077,0,0,1,.076-.077h2.8a.076.076,0,0,1,.075.077Z" transform="translate(-310.156 -319.496)"/>
      <path id="Trazado_1033700" data-name="Trazado 1033700" d="M320.866,104.68h2.057a.819.819,0,0,0,0-1.638h-2.057a.819.819,0,1,0,0,1.638Z" transform="translate(-284.794 -91.85)"/>
      <path id="Trazado_1033701" data-name="Trazado 1033701" d="M156.989,104.68h14.524a.819.819,0,0,0,0-1.638H156.989a.819.819,0,1,0,0,1.638Z" transform="translate(-138.717 -91.85)"/>
      <path id="Trazado_1033702" data-name="Trazado 1033702" d="M159.592,142.11a.819.819,0,0,0,0-1.638h-2.6a.819.819,0,1,0,0,1.638Z" transform="translate(-138.717 -125.214)"/>
      <path id="Trazado_1033703" data-name="Trazado 1033703" d="M225.915,141.291a.819.819,0,0,0-.819-.819H211.118a.819.819,0,0,0,0,1.638H225.1A.819.819,0,0,0,225.915,141.291Z" transform="translate(-186.967 -125.214)"/>
      <path id="Trazado_1033704" data-name="Trazado 1033704" d="M79.147,401.146c0-.206.076-.265.147-.3a1.407,1.407,0,0,1,1.187.08.936.936,0,0,0,.443.135c.808,0,1.447-1.5-.483-1.833v-.052a.83.83,0,0,0-1.66,0v.158a1.862,1.862,0,0,0-1.266,1.865c0,1.4,1.015,1.778,1.756,2.057.707.266.951.382.951.863,0,.3-.081.579-.668.579-.856,0-.754-.677-1.394-.677a.856.856,0,0,0-.791.848c0,.567.59,1.106,1.413,1.324v.062a.83.83,0,0,0,1.66,0v-.084a2.052,2.052,0,0,0,1.413-2.1C81.855,401.576,79.147,401.95,79.147,401.146Z" transform="translate(-68.476 -355.074)"/>
    </g>
  </g>
</svg>
