<svg xmlns="http://www.w3.org/2000/svg" xmlns:xlink="http://www.w3.org/1999/xlink" width="108" height="108" viewBox="0 0 108 108">
  <defs>
    <filter id="Trazado_896985" x="0" y="0" width="108" height="108" filterUnits="userSpaceOnUse">
      <feOffset dy="3" input="SourceAlpha"/>
      <feGaussianBlur stdDeviation="3" result="blur"/>
      <feFlood flood-opacity="0.161"/>
      <feComposite operator="in" in2="blur"/>
      <feComposite in="SourceGraphic"/>
    </filter>
    <clipPath id="clip-path">
      <path id="path2586" d="M0-682.665H51.185v51.185H0Z" transform="translate(0 682.665)"/>
    </clipPath>
  </defs>
  <g id="Grupo_1178814" data-name="Grupo 1178814" transform="translate(9 6)">
    <g id="Grupo_1178675" data-name="Grupo 1178675" transform="translate(0 0)">
      <g id="Grupo_1177410" data-name="Grupo 1177410">
        <g id="Grupo_1176700" data-name="Grupo 1176700">
          <g id="Grupo_1111318" data-name="Grupo 1111318">
            <g id="Grupo_1109826" data-name="Grupo 1109826">
              <g id="Grupo_1098742" data-name="Grupo 1098742">
                <g transform="matrix(1, 0, 0, 1, -9, -6)" filter="url(#Trazado_896985)">
                  <g id="Trazado_896985-2" data-name="Trazado 896985" transform="translate(9 6)" fill="#f2ecfd" opacity="0.859">
                    <path d="M 45 88.00010681152344 C 39.19416046142578 88.00010681152344 33.56304168701172 86.86346435546875 28.2630672454834 84.62177276611328 C 23.14290618896484 82.45613098144531 18.54409408569336 79.35540008544922 14.59441375732422 75.40570831298828 C 10.64472007751465 71.45601654052734 7.543986797332764 66.85721588134766 5.378333568572998 61.73704147338867 C 3.136640071868896 56.43708038330078 2 50.80596160888672 2 45.00011825561523 C 2 39.19416046142578 3.136640071868896 33.56304168701172 5.378333568572998 28.26308059692383 C 7.543986797332764 23.14290618896484 10.64472007751465 18.54409408569336 14.59441375732422 14.59441375732422 C 18.54409408569336 10.64472007751465 23.14290618896484 7.543986797332764 28.26308059692383 5.378333568572998 C 33.56304168701172 3.136640071868896 39.19416046142578 2 45 2 C 50.80583953857422 2 56.43695831298828 3.136640071868896 61.73691940307617 5.378333568572998 C 66.85709381103516 7.543986797332764 71.45590972900391 10.64472007751465 75.40558624267578 14.59441375732422 C 79.35527801513672 18.54409408569336 82.45601654052734 23.14290618896484 84.62166595458984 28.26308059692383 C 86.86335754394531 33.56304168701172 88 39.19416046142578 88 45 C 88 50.80596160888672 86.86335754394531 56.43708038330078 84.62166595458984 61.73704147338867 C 82.45601654052734 66.85721588134766 79.35527801513672 71.45601654052734 75.40558624267578 75.40570831298828 C 71.45590972900391 79.35540008544922 66.85709381103516 82.45613098144531 61.73693466186523 84.62177276611328 C 56.43695831298828 86.86346435546875 50.80583953857422 88.00010681152344 45 88.00010681152344 Z" stroke="none"/>
                    <path d="M 45 3.999992370605469 C 39.46327590942383 3.999992370605469 34.09429168701172 5.083465576171875 29.04218292236328 7.220329284667969 C 24.160400390625 9.285148620605469 19.77527618408203 12.24195861816406 16.00861358642578 16.00862121582031 C 12.24196624755859 19.77528381347656 9.28515625 24.16040802001953 7.2203369140625 29.04217529296875 C 5.083473205566406 34.09428405761719 4 39.46328353881836 4 45.00011444091797 C 4 50.53683853149414 5.083473205566406 55.90582275390625 7.2203369140625 60.95793151855469 C 9.28515625 65.83971405029297 12.24195098876953 70.22482299804688 16.00861358642578 73.99148559570312 C 19.77527618408203 77.75814819335938 24.160400390625 80.71494293212891 29.04216766357422 82.77976226806641 C 34.09427642822266 84.9166259765625 39.46327590942383 86.00009918212891 45 86.00009918212891 C 50.53672409057617 86.00009918212891 55.90572357177734 84.9166259765625 60.95783233642578 82.77976226806641 C 65.839599609375 80.71494293212891 70.22472381591797 77.75814819335938 73.99138641357422 73.99148559570312 C 77.75804901123047 70.22482299804688 80.71484375 65.83971405029297 82.7796630859375 60.95793151855469 C 84.91651916503906 55.90582275390625 86 50.53683853149414 86 45.00000762939453 C 86 39.46328353881836 84.91651916503906 34.09428405761719 82.7796630859375 29.04217529296875 C 80.71484375 24.16040802001953 77.75803375244141 19.77528381347656 73.99138641357422 16.00862121582031 C 70.22472381591797 12.24195861816406 65.839599609375 9.285148620605469 60.95781707763672 7.220329284667969 C 55.90570831298828 5.083465576171875 50.53672409057617 3.999992370605469 45 3.999992370605469 M 45 -7.62939453125e-06 C 69.85281372070312 -7.62939453125e-06 90 20.14719390869141 90 45.00000762939453 L 90 45.00011444091797 C 90 69.85292816162109 69.85281372070312 90.00009918212891 45 90.00009918212891 C 20.14718627929688 90.00009918212891 0 69.85292816162109 0 45.00011444091797 L 0 45.00000762939453 C 0 20.14719390869141 20.14718627929688 -7.62939453125e-06 45 -7.62939453125e-06 Z" stroke="none" fill="#8454ee"/>
                  </g>
                </g>
              </g>
            </g>
          </g>
        </g>
      </g>
    </g>
    <g id="g2580" transform="translate(19.408 19.407)">
      <g id="g2582">
        <g id="g2584" clip-path="url(#clip-path)">
          <g id="g2590" transform="translate(0.75 37.702)">
            <path id="path2592" d="M-606.19-6.79h-48.584a.55.55,0,0,1-.55-.55v3.045a.55.55,0,0,0,.55.55h48.584a.55.55,0,0,0,.55-.55V-7.34a.55.55,0,0,1-.55.55" transform="translate(655.325 7.34)" fill="#90dfc3"/>
          </g>
          <g id="g2594" transform="translate(0.75 40.748)">
            <path id="path2596" d="M-606.19-6.79h-48.584a.55.55,0,0,1-.55-.55v3.045a.55.55,0,0,0,.55.55h48.584a.55.55,0,0,0,.55-.55V-7.34a.55.55,0,0,1-.55.55" transform="translate(655.325 7.34)" fill="#66b49d"/>
          </g>
          <g id="g2598" transform="translate(0.75 43.793)">
            <path id="path2600" d="M-606.19-6.791h-48.584a.55.55,0,0,1-.55-.55V-4.3a.55.55,0,0,0,.55.55h48.584a.55.55,0,0,0,.55-.55V-7.341a.55.55,0,0,1-.55.55" transform="translate(655.325 7.341)" fill="#90dfc3"/>
          </g>
          <g id="g2602" transform="translate(0.75 46.839)">
            <path id="path2604" d="M-606.19-6.791h-48.584a.55.55,0,0,1-.55-.55V-4.3a.55.55,0,0,0,.55.55h48.584a.55.55,0,0,0,.55-.55V-7.341a.55.55,0,0,1-.55.55" transform="translate(655.325 7.341)" fill="#66b49d"/>
          </g>
          <g id="g2606" transform="translate(5.892 0.75)">
            <path id="path2608" d="M-431.748-115.111l1.149-9.33-9.33,1.149,2.324,2.324-7.6,7.6-10.587-10.587L-466.743-113h7.069l3.886-3.886L-445.2-106.3l11.131-11.131Z" transform="translate(466.743 124.441)" fill="#f6e781"/>
          </g>
          <g id="g2610" transform="translate(24.988 0.75)">
            <path id="path2612" d="M-175.936-4.234l-.591,4.8a1.077,1.077,0,0,1-1.83.63,1.077,1.077,0,0,0-1.523,0l-9.608,9.608a1.073,1.073,0,0,1-.709.314l2.447,2.447,11.131-11.131,2.322,2.322,1.149-9.33Z" transform="translate(190.197 4.577)" fill="#f4dd45"/>
          </g>
          <g id="g2614" transform="translate(5.892 6.748)">
            <path id="path2616" d="M-113.718-3.892a1.077,1.077,0,0,0-1.523,0l-2.809,2.809a1.077,1.077,0,0,1-.761.315h-2.124l-2,2h7.069L-112.23-2.4Z" transform="translate(122.936 4.207)" fill="#f4dd45"/>
          </g>
          <g id="g2618" transform="translate(0.75 12.188)">
            <path id="path2620" d="M-606.189,0h-15.749l-6.7,6.7-6.7-6.7h-19.433a.55.55,0,0,0-.55.55V25.514a.55.55,0,0,0,.55.55h48.584a.55.55,0,0,0,.55-.55V.55a.55.55,0,0,0-.55-.55" transform="translate(655.324)" fill="#90dfc3"/>
          </g>
          <g id="g2622" transform="translate(0.75 12.188)">
            <path id="path2624" d="M-606.189,0h-3.448V14.919a9.146,9.146,0,0,1-9.146,9.146h-36.54v1.449a.55.55,0,0,0,.55.55h48.584a.55.55,0,0,0,.55-.55V.55a.55.55,0,0,0-.55-.55" transform="translate(655.324)" fill="#66b49d"/>
          </g>
          <g id="g2626" transform="translate(4.379 15.818)">
            <path id="path2628" d="M-493.414,0h-13.867l-3.071,3.071L-513.424,0h-17.551a2.432,2.432,0,0,1-2.432,2.432v13.94a2.432,2.432,0,0,1,2.432,2.432h37.561a2.432,2.432,0,0,1,2.432-2.432V2.432A2.432,2.432,0,0,1-493.414,0" transform="translate(533.408)" fill="#beecdd"/>
          </g>
          <g id="g2630" transform="translate(42.503 18.222)">
            <path id="path2632" d="M-48.524-109.611a9.136,9.136,0,0,1-3.933,7.516h1.87a2.432,2.432,0,0,1,2.432-2.432v-13.94a2.443,2.443,0,0,1-.369-.028Z" transform="translate(52.457 118.496)" fill="#90dfc3"/>
          </g>
          <g id="g2634" transform="translate(38.496 22.924)">
            <path id="path2636" d="M-28.951-57.9A2.347,2.347,0,0,1-31.3-60.248a2.347,2.347,0,0,1,2.347-2.347A2.347,2.347,0,0,1-26.6-60.248,2.347,2.347,0,0,1-28.951-57.9" transform="translate(31.297 62.595)" fill="#90dfc3"/>
          </g>
          <g id="g2638" transform="translate(7.995 22.924)">
            <path id="path2640" d="M-28.951-57.9A2.347,2.347,0,0,0-26.6-60.248a2.347,2.347,0,0,0-2.347-2.347A2.347,2.347,0,0,0-31.3-60.248,2.347,2.347,0,0,0-28.951-57.9" transform="translate(31.297 62.595)" fill="#90dfc3"/>
          </g>
          <g id="g2642" transform="translate(16.159 15.834)">
            <path id="path2644" d="M-166.454-10.342l-2.217,2.217-3.055-3.055a9.435,9.435,0,0,0-8.22,9.356,9.433,9.433,0,0,0,9.433,9.433,9.433,9.433,0,0,0,9.433-9.433,9.434,9.434,0,0,0-5.374-8.517" transform="translate(179.946 11.18)" fill="#90dfc3"/>
          </g>
          <g id="g2646" transform="translate(19.498 16.672)">
            <path id="path2648" d="M-125.27,0l-.662.662a9.393,9.393,0,0,1,2.037,5.856,9.433,9.433,0,0,1-9.433,9.433,9.463,9.463,0,0,1-2.1-.234,9.4,9.4,0,0,0,6.095,2.233A9.433,9.433,0,0,0-119.9,8.517,9.434,9.434,0,0,0-125.27,0" transform="translate(135.424)" fill="#66b49d"/>
          </g>
          <g id="g2650" transform="translate(20.876 16.115)">
            <path id="path2652" d="M-65.464-92.284h-1.179a1.342,1.342,0,0,1-1.34-1.34,1.342,1.342,0,0,1,1.34-1.34h1.179a1.339,1.339,0,0,1,1.236.819A1.393,1.393,0,0,0-62.4-93.4a1.393,1.393,0,0,0,.74-1.826A4.121,4.121,0,0,0-63.8-97.4l-.413.413-2.774-2.774a1.39,1.39,0,0,0-.461,1.035v1.056a4.134,4.134,0,0,0-3.323,4.048A4.132,4.132,0,0,0-66.644-89.5h1.179a1.342,1.342,0,0,1,1.34,1.34,1.342,1.342,0,0,1-1.34,1.34h-1.179a1.333,1.333,0,0,1-1.25-.854,1.393,1.393,0,0,0-1.8-.792,1.393,1.393,0,0,0-.792,1.8,4.1,4.1,0,0,0,3.042,2.551v1.055a1.393,1.393,0,0,0,1.393,1.393,1.393,1.393,0,0,0,1.393-1.393v-1.056a4.134,4.134,0,0,0,3.323-4.048,4.132,4.132,0,0,0-4.127-4.127" transform="translate(70.77 99.764)" fill="#beecdd"/>
          </g>
          <g id="g2654" transform="translate(24.199 26.968)">
            <path id="path2656" d="M-34.379-72.276v-1.056a4.134,4.134,0,0,0,3.323-4.048,4.129,4.129,0,0,0-.069-.754,9.457,9.457,0,0,1-6.041,5.291v.567a1.393,1.393,0,0,0,1.393,1.393,1.393,1.393,0,0,0,1.393-1.393" transform="translate(37.165 78.134)" fill="#90dfc3"/>
          </g>
          <g id="g2658" transform="translate(38.496 22.924)">
            <path id="path2660" d="M-28.951-57.9A2.347,2.347,0,0,1-31.3-60.248a2.347,2.347,0,0,1,2.347-2.347A2.347,2.347,0,0,1-26.6-60.248,2.347,2.347,0,0,1-28.951-57.9Z" transform="translate(31.297 62.595)" fill="none" stroke="#000" stroke-linecap="round" stroke-linejoin="round" stroke-miterlimit="10" stroke-width="1"/>
          </g>
          <g id="g2662" transform="translate(7.995 22.924)">
            <path id="path2664" d="M-28.951-57.9A2.347,2.347,0,0,0-26.6-60.248a2.347,2.347,0,0,0-2.347-2.347A2.347,2.347,0,0,0-31.3-60.248,2.347,2.347,0,0,0-28.951-57.9Z" transform="translate(31.297 62.595)" fill="none" stroke="#000" stroke-linecap="round" stroke-linejoin="round" stroke-miterlimit="10" stroke-width="1"/>
          </g>
          <g id="g2666" transform="translate(5.892 0.75)">
            <path id="path2668" d="M-314.438-87.9l-3.944,3.945-10.587-10.587L-339.924-83.59h7.069l3.886-3.886,10.587,10.587,11.131-11.131,2.322,2.322,1.149-9.33-9.33,1.149,2.324,2.324-1.1,1.1" transform="translate(339.924 95.028)" fill="none" stroke="#000" stroke-linecap="round" stroke-linejoin="round" stroke-miterlimit="10" stroke-width="1"/>
          </g>
          <g id="g2670" transform="translate(0.75 12.188)">
            <path id="path2672" d="M-246.543,0h-19.433a.55.55,0,0,0-.55.55V25.514a.55.55,0,0,0,.55.55h48.584a.55.55,0,0,0,.55-.55V.55a.55.55,0,0,0-.55-.55H-233.14" transform="translate(266.526)" fill="none" stroke="#000" stroke-linecap="round" stroke-linejoin="round" stroke-miterlimit="10" stroke-width="1"/>
          </g>
          <g id="g2674" transform="translate(4.379 15.818)">
            <path id="path2676" d="M-246.544,0h-17.551a2.432,2.432,0,0,1-2.432,2.432v13.94a2.432,2.432,0,0,1,2.432,2.432h37.561a2.432,2.432,0,0,1,2.432-2.432V2.432A2.432,2.432,0,0,1-226.534,0H-240.4" transform="translate(266.527)" fill="none" stroke="#000" stroke-linecap="round" stroke-linejoin="round" stroke-miterlimit="10" stroke-width="1"/>
          </g>
          <g id="g2678" transform="translate(29.651 16.672)">
            <path id="path2680" d="M-23.439-14.86a9.441,9.441,0,0,0-1.9-1.2" transform="translate(25.339 16.064)" fill="none" stroke="#000" stroke-linecap="round" stroke-linejoin="round" stroke-miterlimit="10" stroke-width="1"/>
          </g>
          <g id="g2682" transform="translate(16.159 15.834)">
            <path id="path2684" d="M-101.412,0a9.435,9.435,0,0,0-8.22,9.356,9.433,9.433,0,0,0,9.433,9.433,9.433,9.433,0,0,0,9.433-9.433,9.391,9.391,0,0,0-1.188-4.587" transform="translate(109.632)" fill="none" stroke="#000" stroke-linecap="round" stroke-linejoin="round" stroke-miterlimit="10" stroke-width="1"/>
          </g>
          <g id="g2686" transform="translate(20.876 16.115)">
            <path id="path2688" d="M-46.686,0a1.39,1.39,0,0,0-.461,1.035V2.091A4.134,4.134,0,0,0-50.471,6.14a4.132,4.132,0,0,0,4.127,4.127h1.179a1.342,1.342,0,0,1,1.34,1.34,1.342,1.342,0,0,1-1.34,1.34h-1.179a1.333,1.333,0,0,1-1.25-.854,1.393,1.393,0,0,0-1.8-.792,1.394,1.394,0,0,0-.792,1.8,4.1,4.1,0,0,0,3.042,2.551v1.055A1.393,1.393,0,0,0-45.754,18.1a1.393,1.393,0,0,0,1.393-1.393V15.655a4.134,4.134,0,0,0,3.323-4.048A4.132,4.132,0,0,0-45.164,7.48h-1.179a1.342,1.342,0,0,1-1.34-1.34,1.342,1.342,0,0,1,1.34-1.34h1.179a1.339,1.339,0,0,1,1.236.819,1.393,1.393,0,0,0,1.826.74,1.393,1.393,0,0,0,.74-1.826A4.121,4.121,0,0,0-43.5,2.362" transform="translate(50.471)" fill="none" stroke="#000" stroke-linecap="round" stroke-linejoin="round" stroke-miterlimit="10" stroke-width="1"/>
          </g>
          <g id="g2690" transform="translate(0.75 37.702)">
            <path id="path2692" d="M0,0V3.046a.55.55,0,0,0,.55.55H49.135a.55.55,0,0,0,.55-.55V0" fill="none" stroke="#000" stroke-linecap="round" stroke-linejoin="round" stroke-miterlimit="10" stroke-width="1"/>
          </g>
          <g id="g2694" transform="translate(45.108 40.748)">
            <path id="path2696" d="M0-44.365H4.776a.55.55,0,0,0,.55-.55v-3.046" transform="translate(0 47.961)" fill="none" stroke="#000" stroke-linecap="round" stroke-linejoin="round" stroke-miterlimit="10" stroke-width="1"/>
          </g>
          <g id="g2698" transform="translate(0.75 40.748)">
            <path id="path2700" d="M0,0V3.046a.55.55,0,0,0,.55.55H40.86" fill="none" stroke="#000" stroke-linecap="round" stroke-linejoin="round" stroke-miterlimit="10" stroke-width="1"/>
          </g>
          <g id="g2702" transform="translate(0.75 43.793)">
            <path id="path2704" d="M0,0V3.046a.55.55,0,0,0,.55.55H49.135a.55.55,0,0,0,.55-.55V0" fill="none" stroke="#000" stroke-linecap="round" stroke-linejoin="round" stroke-miterlimit="10" stroke-width="1"/>
          </g>
          <g id="g2706" transform="translate(0.75 46.839)">
            <path id="path2708" d="M0,0V3.046a.55.55,0,0,0,.55.55H49.135a.55.55,0,0,0,.55-.55V0" fill="none" stroke="#000" stroke-linecap="round" stroke-linejoin="round" stroke-miterlimit="10" stroke-width="1"/>
          </g>
        </g>
      </g>
    </g>
  </g>
</svg>
