<svg xmlns="http://www.w3.org/2000/svg" xmlns:xlink="http://www.w3.org/1999/xlink" width="173.5" height="173.5" viewBox="0 0 173.5 173.5">
  <defs>
    <filter id="Trazado_896985" x="0" y="0" width="173.5" height="173.5" filterUnits="userSpaceOnUse">
      <feOffset dy="3" input="SourceAlpha"/>
      <feGaussianBlur stdDeviation="3" result="blur"/>
      <feFlood flood-opacity="0.161"/>
      <feComposite operator="in" in2="blur"/>
      <feComposite in="SourceGraphic"/>
    </filter>
  </defs>
  <g id="Grupo_1178791" data-name="Grupo 1178791" transform="translate(9 6)">
    <g id="Grupo_1178789" data-name="Grupo 1178789" transform="translate(0 0)">
      <g id="Grupo_1176991" data-name="Grupo 1176991" transform="translate(0)">
        <g id="Grupo_1176845" data-name="Grupo 1176845">
          <g id="Grupo_1111318" data-name="Grupo 1111318">
            <g id="Grupo_1109826" data-name="Grupo 1109826">
              <g id="Grupo_1098742" data-name="Grupo 1098742">
                <g transform="matrix(1, 0, 0, 1, -9, -6)" filter="url(#Trazado_896985)">
                  <g id="Trazado_896985-2" data-name="Trazado 896985" transform="translate(9 6)" fill="#fd9826" opacity="0.859">
                    <path d="M 77.749755859375 152.4997100830078 C 67.65727996826172 152.4997100830078 57.8682975769043 150.5237426757812 48.65468978881836 146.6267242431641 C 44.22610473632812 144.7536010742188 39.95451736450195 142.4350280761719 35.95853805541992 139.7353973388672 C 31.99977684020996 137.0608978271484 28.27701759338379 133.9893341064453 24.89369010925293 130.6060028076172 C 21.5103645324707 127.2226791381836 18.43879890441895 123.4999389648438 15.7642993927002 119.5411605834961 C 13.06469058990479 115.5452041625977 10.74610328674316 111.2735977172852 8.872973442077637 106.8450088500977 C 4.975951671600342 97.63142395019531 2.999994993209839 87.84244537353516 2.999994993209839 77.74996185302734 C 2.999994993209839 67.65726470947266 4.975951671600342 57.86828994750977 8.872973442077637 48.65470123291016 C 10.74610328674316 44.22611618041992 13.06469058990479 39.95450592041016 15.7642993927002 35.95854949951172 C 18.43879890441895 31.9997673034668 21.5103645324707 28.27702903747559 24.89369010925293 24.89370346069336 C 28.27701759338379 21.5103759765625 31.99977684020996 18.43881225585938 35.95853805541992 15.76431179046631 C 39.95451736450195 13.06468105316162 44.22610473632812 10.74611568450928 48.65468978881836 8.87298583984375 C 57.8682975769043 4.975963592529297 67.65727996826172 3.000007152557373 77.749755859375 3.000007152557373 C 87.84223175048828 3.000007152557373 97.63123321533203 4.975963592529297 106.8448181152344 8.87298583984375 C 111.2734069824219 10.74611568450928 115.5450134277344 13.06468105316162 119.5409698486328 15.76431179046631 C 123.499755859375 18.43881225585938 127.2224960327148 21.5103759765625 130.6058197021484 24.89370346069336 C 133.9891510009766 28.27702903747559 137.0607147216797 31.9997673034668 139.7352142333984 35.95854949951172 C 142.4348449707031 39.95450592041016 144.7534027099609 44.22611618041992 146.6265411376953 48.65470123291016 C 150.5235595703125 57.86828994750977 152.49951171875 67.65726470947266 152.49951171875 77.74974822998047 C 152.49951171875 87.84244537353516 150.5235595703125 97.63142395019531 146.6265411376953 106.8450088500977 C 144.7534027099609 111.2735977172852 142.4348449707031 115.5452041625977 139.7352142333984 119.5411605834961 C 137.0607147216797 123.4999389648438 133.9891510009766 127.2226791381836 130.6058197021484 130.6060028076172 C 127.2224960327148 133.9893341064453 123.499755859375 137.0608978271484 119.5409698486328 139.7353973388672 C 115.5450134277344 142.4350280761719 111.2734069824219 144.7536010742188 106.8448181152344 146.6267242431641 C 97.63123321533203 150.5237426757812 87.84223175048828 152.4997100830078 77.749755859375 152.4997100830078 Z" stroke="none"/>
                    <path d="M 77.749755859375 6 C 38.18680572509766 6 6 38.18690490722656 6 77.74995422363281 C 6 117.3129043579102 38.18680572509766 149.4997100830078 77.749755859375 149.4997100830078 C 117.3127059936523 149.4997100830078 149.49951171875 117.3128051757812 149.49951171875 77.749755859375 C 149.49951171875 38.18680572509766 117.3127059936523 6 77.749755859375 6 M 77.749755859375 0 C 120.6897811889648 0 155.49951171875 34.80973052978516 155.49951171875 77.749755859375 L 155.49951171875 77.74995422363281 C 155.49951171875 120.6899795532227 120.6897811889648 155.4997100830078 77.749755859375 155.4997100830078 C 34.80975341796875 155.4997100830078 0 120.6899795532227 0 77.74995422363281 L 0 77.749755859375 C 0 34.80973052978516 34.80975341796875 0 77.749755859375 0 Z" stroke="none" fill="#fff"/>
                  </g>
                </g>
              </g>
            </g>
          </g>
        </g>
      </g>
    </g>
    <g id="time_9799816" transform="translate(28.984 27.009)">
      <path id="Trazado_1033980" data-name="Trazado 1033980" d="M341.859,249.609a19.052,19.052,0,1,0,5.581,13.472,19.052,19.052,0,0,0-5.581-13.472Z" transform="translate(-244.081 -195.963)" fill="#fed402" fill-rule="evenodd"/>
      <path id="Trazado_1033981" data-name="Trazado 1033981" d="M141.925,213.389a22.454,22.454,0,0,1,5.186-23.627q.252-.252.511-.5a26.385,26.385,0,0,0-9.075-13.463,25.728,25.728,0,0,0-15.961-5.665v.007a25.953,25.953,0,1,0,19.337,43.244Z" transform="translate(-78.662 -138.502)" fill="#fff" fill-rule="evenodd"/>
      <g id="Grupo_1178790" data-name="Grupo 1178790" transform="translate(30.303 44.067)">
        <path id="Trazado_1033982" data-name="Trazado 1033982" d="M207.175,277.438a2.236,2.236,0,1,0,.655,1.581A2.236,2.236,0,0,0,207.175,277.438Z" transform="translate(-191.972 -265.501)" fill="#fed402" fill-rule="evenodd"/>
        <path id="Trazado_1033983" data-name="Trazado 1033983" d="M221,248.391a5.624,5.624,0,0,1,3.665,3.665h4.11A9.631,9.631,0,0,0,221,244.28Z" transform="translate(-205.692 -240.225)" fill="#fed402" fill-rule="evenodd"/>
        <path id="Trazado_1033984" data-name="Trazado 1033984" d="M167.462,244.914v4.025a1.687,1.687,0,0,1-3.374,0v-4.025a5.613,5.613,0,0,1,0-10.7v-8.166a13.622,13.622,0,1,0,15.206,15.206h-8.165A5.624,5.624,0,0,1,167.462,244.914Z" transform="translate(-152.154 -226.044)" fill="#fed402" fill-rule="evenodd"/>
      </g>
      <path id="Trazado_1033985" data-name="Trazado 1033985" d="M206.31,101.6V95.47h-5.692V101.6q1.409-.109,2.846-.109t2.846.11Z" transform="translate(-159.538 -80.437)" fill="#9c9c9c" fill-rule="evenodd"/>
      <path id="Trazado_1033986" data-name="Trazado 1033986" d="M197.411,43.038H184.593v8.284h12.818Z" transform="translate(-147.077 -39.663)" fill="#9c9c9c" fill-rule="evenodd"/>
      <path id="Trazado_1033987" data-name="Trazado 1033987" d="M120.232,194.467a22.492,22.492,0,0,1-2.221-3.223,29.314,29.314,0,1,1-20.865-49.9v.007a29.075,29.075,0,0,1,18.043,6.39,29.985,29.985,0,0,1,9.823,13.84,22.391,22.391,0,0,1,3.436-1.9,33.2,33.2,0,1,0-8.216,34.79Z" transform="translate(-53.221 -113.072)" fill="#fc5412" fill-rule="evenodd"/>
      <path id="Trazado_1033988" data-name="Trazado 1033988" d="M100.336,175.514a22.505,22.505,0,0,1-3.22-2.4,36.533,36.533,0,1,1-31.639-62.244v-4.015a40.507,40.507,0,1,0,34.859,68.663Z" transform="translate(-27.773 -89.287)" fill="#e63c04" fill-rule="evenodd"/>
      <path id="Trazado_1033989" data-name="Trazado 1033989" d="M256.334,117.086l2.814-2.814-.191-.191a40.247,40.247,0,0,0-17.557-7.236v4.017a36.355,36.355,0,0,1,14.934,6.224Z" transform="translate(-191.252 -89.282)" fill="#e63c04" fill-rule="evenodd"/>
      <path id="Trazado_1033990" data-name="Trazado 1033990" d="M322.962,123.525l3.647-3.647,0,0,.031-.03.032-.029.032-.028.033-.027.033-.026.034-.026.034-.024.035-.024.035-.022.036-.022.036-.021.036-.02.037-.019.037-.018.038-.017.038-.016.038-.015.039-.014.039-.013.039-.012.039-.011.039-.01.04-.009.04-.008.04-.007.04-.006.04-.005.04,0,.04,0,.04,0h.162l.04,0,.04,0a.351.351,0,0,1,.04,0l.04.005.04.006.04.007.04.008.04.009.04.01.039.011.039.012.039.013.038.014.038.015.038.016.038.017.037.018.037.019.037.02.036.021.036.022.035.022.035.024.034.024.034.026.033.026.033.027.032.028.032.029.031.03,3.147,3.147a1.454,1.454,0,0,0,2.056-2.055l-10.974-10.974a1.454,1.454,0,1,0-2.056,2.056l3.147,3.147a1.687,1.687,0,0,1,0,2.386L320.6,121.3Q321.829,122.361,322.962,123.525Z" transform="translate(-252.842 -91.4)" fill="#9c9c9c" fill-rule="evenodd"/>
      <path id="Trazado_1033991" data-name="Trazado 1033991" d="M343.909,172.024l-2.6,2.6a36.479,36.479,0,0,1,6.039,10.822,22.342,22.342,0,0,1,3.955-.7,40.538,40.538,0,0,0-5.645-10.968Z" transform="translate(-268.947 -139.969)" fill="#e63c04" fill-rule="evenodd"/>
      <path id="Trazado_1033992" data-name="Trazado 1033992" d="M58.108,62.348a1.687,1.687,0,0,1,3.374,0V72.583A12.973,12.973,0,0,1,72.657,83.759H75.1a1.687,1.687,0,0,1,1.687,1.687A17,17,0,1,1,58.108,68.532Zm3.268,21.517a2.236,2.236,0,1,0,.655,1.581A2.236,2.236,0,0,0,61.376,83.865Zm.105-3.771a5.624,5.624,0,0,1,3.665,3.665h4.11a9.631,9.631,0,0,0-7.775-7.776Zm0,10.7v4.025a1.687,1.687,0,1,1-3.374,0V90.8a5.613,5.613,0,0,1,0-10.7V71.928A13.622,13.622,0,1,0,73.313,87.134H65.147A5.624,5.624,0,0,1,61.482,90.8Zm1.159-41.777V42.894H56.949v6.127q1.409-.109,2.846-.109t2.846.11ZM66.2,31.236H53.386V39.52H66.2V31.236Zm35.661,76.326a1.687,1.687,0,1,1-3.375,0v-1.7a6.4,6.4,0,0,1-4.711-6.171,1.687,1.687,0,1,1,3.375,0,3.024,3.024,0,1,0,3.024-3.024A6.4,6.4,0,0,1,98.49,84.1V82.4a1.687,1.687,0,1,1,3.375,0v1.7a6.4,6.4,0,0,1,4.71,6.173,1.687,1.687,0,1,1-3.375,0,3.024,3.024,0,1,0-3.024,3.024,6.4,6.4,0,0,1,1.688,12.571Zm11.785-26.055a19.052,19.052,0,1,0,5.581,13.472A19.052,19.052,0,0,0,113.649,81.506ZM79.133,102.748a22.454,22.454,0,0,1,5.186-23.627q.252-.252.511-.5a26.385,26.385,0,0,0-9.075-13.463A25.728,25.728,0,0,0,59.795,59.5V59.5a25.953,25.953,0,1,0,19.337,43.244Zm3.749,6.508a22.492,22.492,0,0,1-2.221-3.223A29.314,29.314,0,1,1,59.8,56.129v.007a29.075,29.075,0,0,1,18.043,6.39,29.984,29.984,0,0,1,9.823,13.84,22.392,22.392,0,0,1,3.436-1.9,33.2,33.2,0,1,0-8.216,34.79Zm5.552,4.832a22.5,22.5,0,0,1-3.22-2.4A36.533,36.533,0,1,1,53.574,49.44V45.425a40.507,40.507,0,1,0,34.859,68.663ZM80.458,46.741a43.6,43.6,0,0,0-11.522-4.21,1.684,1.684,0,0,0,.643-1.325V29.548a1.687,1.687,0,0,0-1.687-1.687H51.7a1.687,1.687,0,0,0-1.687,1.687V41.207a1.684,1.684,0,0,0,.642,1.325,43.882,43.882,0,1,0,40.909,73.159,22.429,22.429,0,1,0,10.191-43.083,43.516,43.516,0,0,0-2.49-6.335q-.792-1.627-1.716-3.182a4.825,4.825,0,0,0,2.067-8.048L88.64,44.069a4.825,4.825,0,0,0-8.183,2.673Zm.494,8.922A36.355,36.355,0,0,0,66.018,49.44V45.424a40.248,40.248,0,0,1,17.558,7.236l.191.191-2.815,2.814Zm5.039,4.323q-1.132-1.164-2.363-2.226l3.718-3.718a1.687,1.687,0,0,0,0-2.386L84.2,48.51a1.454,1.454,0,0,1,2.056-2.056L97.228,57.428a1.454,1.454,0,0,1-2.056,2.055l-3.147-3.147-.031-.03-.032-.029-.032-.028-.033-.027-.033-.026-.034-.026-.034-.024-.035-.024-.035-.022-.036-.022-.036-.021-.037-.02-.037-.019L91.543,56l-.038-.017-.038-.016-.038-.015-.038-.014-.039-.013-.039-.012-.039-.011-.04-.01-.04-.009-.04-.008-.04-.007-.04-.006-.04-.005-.04,0-.04,0-.04,0h-.162l-.04,0-.04,0-.04,0-.04.005-.04.006-.04.007-.04.008-.04.009-.039.01-.039.011-.039.012-.039.013-.039.014-.038.015-.038.016L90.122,56l-.037.018-.037.019-.036.02-.036.021-.036.022-.035.022-.035.024-.034.024L89.8,56.2l-.033.026-.033.027-.032.028-.032.029-.031.03,0,0L85.99,59.986Zm4.842-.07,1.75,1.75a40.54,40.54,0,0,1,5.644,10.969,22.342,22.342,0,0,0-3.955.7,36.479,36.479,0,0,0-6.039-10.822Z" transform="translate(-15.87 -27.861)" fill-rule="evenodd"/>
    </g>
  </g>
</svg>
