<svg xmlns="http://www.w3.org/2000/svg" xmlns:xlink="http://www.w3.org/1999/xlink" width="123" height="123" viewBox="0 0 123 123">
  <defs>
    <filter id="Trazado_896985" x="0" y="0" width="123" height="123" filterUnits="userSpaceOnUse">
      <feOffset dy="3" input="SourceAlpha"/>
      <feGaussianBlur stdDeviation="3" result="blur"/>
      <feFlood flood-opacity="0.161"/>
      <feComposite operator="in" in2="blur"/>
      <feComposite in="SourceGraphic"/>
    </filter>
  </defs>
  <g id="Grupo_1111351" data-name="Grupo 1111351" transform="translate(-327.795 -4434.804)">
    <g id="Grupo_1111323" data-name="Grupo 1111323" transform="translate(336.795 4440.804)">
      <g id="Grupo_1109827" data-name="Grupo 1109827" transform="translate(0 0)">
        <g id="Grupo_1098742" data-name="Grupo 1098742" transform="translate(0)">
          <g transform="matrix(1, 0, 0, 1, -9, -6)" filter="url(#Trazado_896985)">
            <g id="Trazado_896985-2" data-name="Trazado 896985" transform="translate(9 6)" fill="#f3f0ea" opacity="0.859">
              <path d="M 52.49993515014648 103.4999923706055 C 45.61432266235352 103.4999923706055 38.93547821044922 102.1517791748047 32.64892196655273 99.49277496337891 C 26.57606315612793 96.92417907714844 21.12176322937012 93.24668884277344 16.43753433227539 88.56246185302734 C 11.75330638885498 83.87823486328125 8.075820922851562 78.42393493652344 5.50722074508667 72.35108184814453 C 2.848220825195312 66.06452178955078 1.500006556510925 59.38567733764648 1.500006556510925 52.50006484985352 C 1.500006556510925 45.61432266235352 2.848220825195312 38.93547821044922 5.50722074508667 32.64892196655273 C 8.075820922851562 26.57606315612793 11.75330638885498 21.12176322937012 16.43753433227539 16.43753433227539 C 21.12176322937012 11.75330638885498 26.57606315612793 8.075820922851562 32.64892196655273 5.50722074508667 C 38.93547821044922 2.848220825195312 45.61432266235352 1.500006675720215 52.49993515014648 1.500006675720215 C 59.38554763793945 1.500006675720215 66.06439208984375 2.848220825195312 72.3509521484375 5.50722074508667 C 78.42380523681641 8.075820922851562 83.87810516357422 11.75330638885498 88.56233215332031 16.43753433227539 C 93.24656677246094 21.12176322937012 96.92406463623047 26.57606315612793 99.49266052246094 32.64892196655273 C 102.1516647338867 38.93547821044922 103.4998779296875 45.61432266235352 103.4998779296875 52.49991989135742 C 103.4998779296875 59.38567733764648 102.1516647338867 66.06452178955078 99.49266052246094 72.35108184814453 C 96.92406463623047 78.42393493652344 93.24656677246094 83.87823486328125 88.56233215332031 88.56246185302734 C 83.87810516357422 93.24668884277344 78.42380523681641 96.92417907714844 72.3509521484375 99.49277496337891 C 66.06439208984375 102.1517791748047 59.38554763793945 103.4999923706055 52.49993515014648 103.4999923706055 Z" stroke="none"/>
              <path d="M 52.49993515014648 2.999992370605469 C 45.81616973876953 2.999992370605469 39.33391571044922 4.308341979980469 33.23325347900391 6.888710021972656 C 27.33918762207031 9.381690979003906 22.04515075683594 12.95124053955078 17.49819946289062 17.49819183349609 C 12.95123291015625 22.04514312744141 9.381698608398438 27.33919525146484 6.888717651367188 33.23324584960938 C 4.308349609375 39.33390808105469 3 45.81615829467773 3 52.50005722045898 C 3 59.1838264465332 4.308349609375 65.66607666015625 6.888717651367188 71.76673889160156 C 9.381698608398438 77.66081237792969 12.95123291015625 82.95484161376953 17.49819946289062 87.50179290771484 C 22.04515075683594 92.04874420166016 27.33918762207031 95.61829376220703 33.23325347900391 98.11125946044922 C 39.33391571044922 100.6916275024414 45.81616973876953 101.9999771118164 52.49993515014648 101.9999771118164 C 59.18370056152344 101.9999771118164 65.66595458984375 100.6916275024414 71.76661682128906 98.11125946044922 C 77.66068267822266 95.61829376220703 82.95471954345703 92.04874420166016 87.50167083740234 87.50179290771484 C 92.04863739013672 82.95484161376953 95.61817169189453 77.66081237792969 98.11115264892578 71.76673889160156 C 100.691520690918 65.66607666015625 101.999870300293 59.1838264465332 101.999870300293 52.49992752075195 C 101.999870300293 45.81615829467773 100.691520690918 39.33390808105469 98.11115264892578 33.23324584960938 C 95.61817169189453 27.33919525146484 92.04863739013672 22.04514312744141 87.50167083740234 17.49819183349609 C 82.95471954345703 12.95124053955078 77.66068267822266 9.381690979003906 71.76661682128906 6.888710021972656 C 65.66595458984375 4.308341979980469 59.18370056152344 2.999992370605469 52.49993515014648 2.999992370605469 M 52.49993515014648 -7.62939453125e-06 C 81.49485015869141 -7.62939453125e-06 104.999870300293 23.50502777099609 104.999870300293 52.49992752075195 L 104.999870300293 52.50005722045898 C 104.999870300293 81.49497985839844 81.49485015869141 104.9999771118164 52.49993515014648 104.9999771118164 C 23.50502014160156 104.9999771118164 0 81.49497985839844 0 52.50005722045898 L 0 52.49992752075195 C 0 23.50502777099609 23.50502014160156 -7.62939453125e-06 52.49993515014648 -7.62939453125e-06 Z" stroke="none" fill="#fff"/>
            </g>
          </g>
          <g id="Rectángulo_400907" data-name="Rectángulo 400907" transform="translate(0)" fill="none" stroke="#fff" stroke-width="3">
            <rect width="105" height="105" rx="52.5" stroke="none"/>
            <rect x="1.5" y="1.5" width="102" height="102" rx="51" fill="none"/>
          </g>
        </g>
      </g>
    </g>
    <g id="analysis_11063540" transform="translate(353.869 4458.782)">
      <g id="Grupo_1178796" data-name="Grupo 1178796" transform="translate(3.094 2.053)">
        <g id="Grupo_1178793" data-name="Grupo 1178793" transform="translate(18.236 18.174)">
          <circle id="Elipse_12921" data-name="Elipse 12921" cx="11.427" cy="11.427" r="11.427" fill="#fdb800"/>
          <circle id="Elipse_12922" data-name="Elipse 12922" cx="8.103" cy="8.103" r="8.103" transform="translate(3.324 3.324)" fill="#ffda2d"/>
        </g>
        <g id="Grupo_1178794" data-name="Grupo 1178794" transform="translate(0)">
          <path id="Trazado_1033993" data-name="Trazado 1033993" d="M10.623,189.792a29.766,29.766,0,0,0,2.5,19l13.121-7.576a14.524,14.524,0,0,1-1.111-5.59,14.707,14.707,0,0,1,.125-1.914Z" transform="translate(-10.048 -166.027)" fill="#fc685b" fill-rule="evenodd"/>
          <path id="Trazado_1033994" data-name="Trazado 1033994" d="M191.309,300.069a29.7,29.7,0,0,0,33.948-19.6l-14.638-3.922a14.6,14.6,0,0,1-15.387,8.883Z" transform="translate(-167.482 -241.38)" fill="#72d561" fill-rule="evenodd"/>
          <path id="Trazado_1033995" data-name="Trazado 1033995" d="M47.863,309.2a29.742,29.742,0,0,0,15.2,11.671l3.922-14.637a14.625,14.625,0,0,1-6-4.609Z" transform="translate(-42.892 -263.156)" fill="#ffda2d" fill-rule="evenodd"/>
          <path id="Trazado_1033996" data-name="Trazado 1033996" d="M48.081,9A29.681,29.681,0,0,0,21.863,29.112L36.5,33.033a14.592,14.592,0,0,1,11.583-8.885Z" transform="translate(-20.31 -9.001)" fill="#b4d2d7" fill-rule="evenodd"/>
          <path id="Trazado_1033997" data-name="Trazado 1033997" d="M277.291,44.439A29.682,29.682,0,0,0,250.095,9V24.149a14.586,14.586,0,0,1,12.559,16.368Z" transform="translate(-218.54 -9.002)" fill="#64b5f6" fill-rule="evenodd"/>
        </g>
        <g id="Grupo_1178795" data-name="Grupo 1178795" transform="translate(28.967 29.202)">
          <path id="Trazado_1033998" data-name="Trazado 1033998" d="M387.76,391.374l2.005-2.143-4.052-4.052-2.149,2Z" transform="translate(-363.431 -364.931)" fill="#7a8c98" fill-rule="evenodd"/>
          <ellipse id="Elipse_12923" data-name="Elipse 12923" cx="12.284" cy="12.284" rx="12.284" ry="12.284" transform="translate(0 2.432) rotate(-5.682)" fill="#8d9ca8"/>
          <path id="Trazado_1033999" data-name="Trazado 1033999" d="M272.456,264.41a9.092,9.092,0,1,1-9.092,9.092A9.092,9.092,0,0,1,272.456,264.41Z" transform="translate(-259.032 -260.037)" fill="#e6f8ff" fill-rule="evenodd"/>
          <path id="Trazado_1034000" data-name="Trazado 1034000" d="M407.774,406.154l-2.667,2.667a.709.709,0,0,0,0,1l8.126,8.126a2.594,2.594,0,1,0,3.668-3.668l-8.126-8.126a.709.709,0,0,0-1,0Z" transform="translate(-381.963 -382.969)" fill="#da8c36" fill-rule="evenodd"/>
          <path id="Trazado_1034001" data-name="Trazado 1034001" d="M405.107,409.822l1.862,1.862,3.668-3.669-1.862-1.862a.709.709,0,0,0-1,0l-2.667,2.667a.709.709,0,0,0,0,1Z" transform="translate(-381.963 -382.969)" fill="#c97629" fill-rule="evenodd"/>
        </g>
      </g>
      <path id="Trazado_1034002" data-name="Trazado 1034002" d="M45.484,36.679a8.04,8.04,0,1,1-8.039,8.041A8.05,8.05,0,0,1,45.484,36.679Zm0,18.184A10.144,10.144,0,1,0,35.341,44.72,10.155,10.155,0,0,0,45.484,54.863ZM66.255,65.491a1.551,1.551,0,0,1-2.181,0l-5.52-5.521,2.18-2.181,5.52,5.52A1.543,1.543,0,0,1,66.255,65.491ZM58.373,55.427l-2.182,2.181.875.875L59.249,56.3Zm-3.762-.994q.3-.284.588-.586l.89.89-.586.586ZM28.233,59.909a28.928,28.928,0,0,0,4.525.356A28.553,28.553,0,0,0,44,57.971,13.366,13.366,0,0,1,32.4,47.276q-.384-.008-.769-.035ZM22.382,31.655A10.384,10.384,0,0,0,32.423,42.021q.128-.617.312-1.213a9.154,9.154,0,1,1,9.177-9.153c0,.072-.006.145-.007.217q.6-.168,1.225-.28a10.374,10.374,0,0,0-20.749.063Zm10.376,7.051a7.06,7.06,0,0,0,.853-.054A13.435,13.435,0,0,1,39.73,32.69a6.957,6.957,0,0,0,.079-1.036,7.051,7.051,0,1,0-7.051,7.051Zm23.96,6.014A11.233,11.233,0,1,0,45.485,55.952,11.245,11.245,0,0,0,56.717,44.72ZM35.7,16.3V3.2a28.628,28.628,0,0,1,25.31,32.983l-7.316-1.96A13.281,13.281,0,0,0,48.383,31.7c0-.016,0-.031,0-.047A15.661,15.661,0,0,0,35.7,16.3ZM59.493,41.865c-.221.578-.463,1.149-.72,1.712a13.237,13.237,0,0,0-.324-1.99Zm8.251,19.957L59.118,53.2a1.054,1.054,0,0,0-1.489,0l-.054.054L56.523,52.2a13.289,13.289,0,0,0,1.6-3.223,30.58,30.58,0,0,0,3.74-7.49,1.053,1.053,0,0,0-.725-1.353l-3.523-.944a13.376,13.376,0,0,0-1.172-2.053l5.127,1.374a1.05,1.05,0,0,0,1.3-.811,31,31,0,0,0,.6-6.04A30.715,30.715,0,0,0,34.715,1,1.05,1.05,0,0,0,33.6,2.053V17.2a1.05,1.05,0,0,0,.916,1.042A13.549,13.549,0,0,1,46.276,31.408q-.392-.024-.792-.024l-.252,0A12.478,12.478,0,1,0,32.164,44.119c-.009.2-.015.4-.015.6,0,.149,0,.3.009.444-.394-.017-.789-.05-1.177-.1a1.051,1.051,0,0,0-1.153.77L25.9,60.471a1.052,1.052,0,0,0,.811,1.3,30.906,30.906,0,0,0,6.042.6,30.594,30.594,0,0,0,16.652-4.9,13.284,13.284,0,0,0,3.552-1.709l1.053,1.055-.054.054a1.052,1.052,0,0,0,0,1.487l8.627,8.626a3.652,3.652,0,0,0,5.155,0,3.651,3.651,0,0,0,0-5.156ZM35.685,33.341a2.744,2.744,0,0,1-1.876,2.6v.528a1.051,1.051,0,1,1-2.1,0v-.484a2.762,2.762,0,0,1-1.512-1.044,1.052,1.052,0,1,1,1.7-1.232.638.638,0,0,0,.515.267h.531a.636.636,0,1,0,0-1.271h-.377a2.739,2.739,0,0,1-.862-5.338v-.53a1.051,1.051,0,0,1,2.1,0v.484a2.763,2.763,0,0,1,1.51,1.044,1.051,1.051,0,1,1-1.7,1.233.643.643,0,0,0-.517-.267h-.531a.636.636,0,0,0,0,1.271h.377A2.742,2.742,0,0,1,35.685,33.341ZM29.814,3.2V16.3A15.669,15.669,0,0,0,18.69,24.837L6.023,21.444A28.473,28.473,0,0,1,29.814,3.2ZM4.376,23.18a1.05,1.05,0,0,1-.724-1.353A30.731,30.731,0,0,1,30.8,1a1.052,1.052,0,0,1,1.118,1.05V17.2A1.051,1.051,0,0,1,31,18.243a13.549,13.549,0,0,0-10.745,8.245,1.054,1.054,0,0,1-.971.65,1.081,1.081,0,0,1-.273-.036ZM6.634,43.338,17.99,36.781a15.55,15.55,0,0,1-.86-5.127c0-.375.014-.753.04-1.129L4.5,27.13a28.976,28.976,0,0,0-.356,4.525A28.3,28.3,0,0,0,6.634,43.338Zm13.629-6.5a1.053,1.053,0,0,1-.445,1.315L6.7,45.73a1.065,1.065,0,0,1-.526.141,1.084,1.084,0,0,1-.3-.045,1.053,1.053,0,0,1-.639-.54A30.4,30.4,0,0,1,2.042,31.655a31,31,0,0,1,.6-6.042,1.051,1.051,0,0,1,1.3-.81l14.637,3.921a1.052,1.052,0,0,1,.77,1.153,13.659,13.659,0,0,0-.117,1.777,13.448,13.448,0,0,0,1.03,5.186Zm2.283,21.548A28.835,28.835,0,0,1,9.582,48.433l11.355-6.557a15.693,15.693,0,0,0,5,3.844ZM27.59,44.157A1.05,1.05,0,0,1,28.2,45.4L24.283,60.037a1.058,1.058,0,0,1-.521.656,1.043,1.043,0,0,1-.5.123,1.055,1.055,0,0,1-.337-.055A30.905,30.905,0,0,1,7.19,48.678a1.053,1.053,0,0,1,.35-1.495l13.121-7.576a1.053,1.053,0,0,1,1.36.271,13.584,13.584,0,0,0,5.569,4.279Z" transform="translate(0 0)" fill-rule="evenodd"/>
    </g>
  </g>
</svg>
