<svg xmlns="http://www.w3.org/2000/svg" xmlns:xlink="http://www.w3.org/1999/xlink" width="123" height="123" viewBox="0 0 123 123">
  <defs>
    <filter id="Trazado_896985" x="0" y="0" width="123" height="123" filterUnits="userSpaceOnUse">
      <feOffset dy="3" input="SourceAlpha"/>
      <feGaussianBlur stdDeviation="3" result="blur"/>
      <feFlood flood-opacity="0.161"/>
      <feComposite operator="in" in2="blur"/>
      <feComposite in="SourceGraphic"/>
    </filter>
  </defs>
  <g id="Grupo_1178812" data-name="Grupo 1178812" transform="translate(-1160.503 -2558)">
    <g id="Grupo_1178598" data-name="Grupo 1178598" transform="translate(832.708 -1876.804)">
      <g id="Grupo_1111323" data-name="Grupo 1111323" transform="translate(336.795 4440.804)">
        <g id="Grupo_1109827" data-name="Grupo 1109827" transform="translate(0 0)">
          <g id="Grupo_1098742" data-name="Grupo 1098742" transform="translate(0)">
            <g transform="matrix(1, 0, 0, 1, -9, -6)" filter="url(#Trazado_896985)">
              <g id="Trazado_896985-2" data-name="Trazado 896985" transform="translate(9 6)" fill="#f3f0ea" opacity="0.859">
                <path d="M 52.49993515014648 103.4999923706055 C 45.61432266235352 103.4999923706055 38.93547821044922 102.1517791748047 32.64892196655273 99.49277496337891 C 26.57606315612793 96.92417907714844 21.12176322937012 93.24668884277344 16.43753433227539 88.56246185302734 C 11.75330638885498 83.87823486328125 8.075820922851562 78.42393493652344 5.50722074508667 72.35108184814453 C 2.848220825195312 66.06452178955078 1.500006556510925 59.38567733764648 1.500006556510925 52.50006484985352 C 1.500006556510925 45.61432266235352 2.848220825195312 38.93547821044922 5.50722074508667 32.64892196655273 C 8.075820922851562 26.57606315612793 11.75330638885498 21.12176322937012 16.43753433227539 16.43753433227539 C 21.12176322937012 11.75330638885498 26.57606315612793 8.075820922851562 32.64892196655273 5.50722074508667 C 38.93547821044922 2.848220825195312 45.61432266235352 1.500006675720215 52.49993515014648 1.500006675720215 C 59.38554763793945 1.500006675720215 66.06439208984375 2.848220825195312 72.3509521484375 5.50722074508667 C 78.42380523681641 8.075820922851562 83.87810516357422 11.75330638885498 88.56233215332031 16.43753433227539 C 93.24656677246094 21.12176322937012 96.92406463623047 26.57606315612793 99.49266052246094 32.64892196655273 C 102.1516647338867 38.93547821044922 103.4998779296875 45.61432266235352 103.4998779296875 52.49991989135742 C 103.4998779296875 59.38567733764648 102.1516647338867 66.06452178955078 99.49266052246094 72.35108184814453 C 96.92406463623047 78.42393493652344 93.24656677246094 83.87823486328125 88.56233215332031 88.56246185302734 C 83.87810516357422 93.24668884277344 78.42380523681641 96.92417907714844 72.3509521484375 99.49277496337891 C 66.06439208984375 102.1517791748047 59.38554763793945 103.4999923706055 52.49993515014648 103.4999923706055 Z" stroke="none"/>
                <path d="M 52.49993515014648 2.999992370605469 C 45.81616973876953 2.999992370605469 39.33391571044922 4.308341979980469 33.23325347900391 6.888710021972656 C 27.33918762207031 9.381690979003906 22.04515075683594 12.95124053955078 17.49819946289062 17.49819183349609 C 12.95123291015625 22.04514312744141 9.381698608398438 27.33919525146484 6.888717651367188 33.23324584960938 C 4.308349609375 39.33390808105469 3 45.81615829467773 3 52.50005722045898 C 3 59.1838264465332 4.308349609375 65.66607666015625 6.888717651367188 71.76673889160156 C 9.381698608398438 77.66081237792969 12.95123291015625 82.95484161376953 17.49819946289062 87.50179290771484 C 22.04515075683594 92.04874420166016 27.33918762207031 95.61829376220703 33.23325347900391 98.11125946044922 C 39.33391571044922 100.6916275024414 45.81616973876953 101.9999771118164 52.49993515014648 101.9999771118164 C 59.18370056152344 101.9999771118164 65.66595458984375 100.6916275024414 71.76661682128906 98.11125946044922 C 77.66068267822266 95.61829376220703 82.95471954345703 92.04874420166016 87.50167083740234 87.50179290771484 C 92.04863739013672 82.95484161376953 95.61817169189453 77.66081237792969 98.11115264892578 71.76673889160156 C 100.691520690918 65.66607666015625 101.999870300293 59.1838264465332 101.999870300293 52.49992752075195 C 101.999870300293 45.81615829467773 100.691520690918 39.33390808105469 98.11115264892578 33.23324584960938 C 95.61817169189453 27.33919525146484 92.04863739013672 22.04514312744141 87.50167083740234 17.49819183349609 C 82.95471954345703 12.95124053955078 77.66068267822266 9.381690979003906 71.76661682128906 6.888710021972656 C 65.66595458984375 4.308341979980469 59.18370056152344 2.999992370605469 52.49993515014648 2.999992370605469 M 52.49993515014648 -7.62939453125e-06 C 81.49485015869141 -7.62939453125e-06 104.999870300293 23.50502777099609 104.999870300293 52.49992752075195 L 104.999870300293 52.50005722045898 C 104.999870300293 81.49497985839844 81.49485015869141 104.9999771118164 52.49993515014648 104.9999771118164 C 23.50502014160156 104.9999771118164 0 81.49497985839844 0 52.50005722045898 L 0 52.49992752075195 C 0 23.50502777099609 23.50502014160156 -7.62939453125e-06 52.49993515014648 -7.62939453125e-06 Z" stroke="none" fill="#fff"/>
              </g>
            </g>
            <g id="Rectángulo_400907" data-name="Rectángulo 400907" transform="translate(0)" fill="none" stroke="#fff" stroke-width="3">
              <rect width="105" height="105" rx="52.5" stroke="none"/>
              <rect x="1.5" y="1.5" width="102" height="102" rx="51" fill="none"/>
            </g>
          </g>
        </g>
      </g>
    </g>
    <g id="market_2640808" transform="translate(1193.003 2586.552)">
      <g id="Grupo_1178810" data-name="Grupo 1178810">
        <g id="Grupo_1178799" data-name="Grupo 1178799">
          <path id="Trazado_1034025" data-name="Trazado 1034025" d="M20,38,10.67,54,6.45,61.22A1.562,1.562,0,0,1,5.1,62H3.57A1.566,1.566,0,0,1,2,60.43a1.6,1.6,0,0,1,.22-.8L15,38Z" fill="#cf9e76"/>
        </g>
        <g id="Grupo_1178800" data-name="Grupo 1178800">
          <path id="Trazado_1034026" data-name="Trazado 1034026" d="M41.78,59.63a1.6,1.6,0,0,1,.22.8A1.566,1.566,0,0,1,40.43,62H38.9a1.562,1.562,0,0,1-1.35-.78L33.33,54,24,38h5Z" fill="#cf9e76"/>
        </g>
        <g id="Grupo_1178801" data-name="Grupo 1178801">
          <circle id="Elipse_12925" data-name="Elipse 12925" cx="2" cy="2" r="2" transform="translate(58 46)" fill="#ff826e"/>
        </g>
        <g id="Grupo_1178802" data-name="Grupo 1178802">
          <path id="Trazado_1034027" data-name="Trazado 1034027" d="M42,24,57.26,34.92a20.032,20.032,0,0,1-30.52,0l5.33-3.82Z" fill="#b4dd7f"/>
        </g>
        <g id="Grupo_1178803" data-name="Grupo 1178803">
          <circle id="Elipse_12926" data-name="Elipse 12926" cx="2" cy="2" r="2" transform="translate(50 46)" fill="#ff826e"/>
        </g>
        <g id="Grupo_1178804" data-name="Grupo 1178804">
          <path id="Trazado_1034028" data-name="Trazado 1034028" d="M61.91,20.09a20.356,20.356,0,0,0-1.37-5.63,20.091,20.091,0,0,0-2.52-4.48A20.345,20.345,0,0,0,54.6,6.4a19.976,19.976,0,0,0-4.31-2.69A19.545,19.545,0,0,0,44,2V20.95l1.81,1.24,4.15,2.85,4.15,2.85,5.42,3.73A19.773,19.773,0,0,0,62,22C62,21.36,61.97,20.72,61.91,20.09Z" fill="#ff826e"/>
        </g>
        <g id="Grupo_1178805" data-name="Grupo 1178805">
          <circle id="Elipse_12927" data-name="Elipse 12927" cx="2" cy="2" r="2" transform="translate(42 46)" fill="#ff826e"/>
        </g>
        <g id="Grupo_1178806" data-name="Grupo 1178806">
          <path id="Trazado_1034029" data-name="Trazado 1034029" d="M32,26.45l-7.53,5.18A20.136,20.136,0,0,1,33.1,4,19.6,19.6,0,0,1,40,2V20.95Z" fill="#fcd770"/>
        </g>
        <g id="Grupo_1178807" data-name="Grupo 1178807">
          <path id="Trazado_1034030" data-name="Trazado 1034030" d="M3,4H33.1a20.086,20.086,0,0,0-7.13,6H3A1,1,0,0,1,2,9V5A1,1,0,0,1,3,4Z" fill="#aab2bd"/>
        </g>
        <g id="Grupo_1178808" data-name="Grupo 1178808">
          <path id="Trazado_1034031" data-name="Trazado 1034031" d="M20,38V60.43A1.566,1.566,0,0,0,21.57,62h.86A1.566,1.566,0,0,0,24,60.43V38Z" fill="#cf9e76"/>
        </g>
        <g id="Grupo_1178809" data-name="Grupo 1178809">
          <path id="Trazado_1034032" data-name="Trazado 1034032" d="M26.74,34.92l5.33-3.82L32,31V26.45l-7.53,5.18A20.072,20.072,0,0,1,25.97,10H4V37a1,1,0,0,0,1,1H30l.01-.01A19.805,19.805,0,0,1,26.74,34.92Z" fill="#ccd1d9"/>
        </g>
      </g>
      <g id="Grupo_1178811" data-name="Grupo 1178811">
        <path id="Trazado_1034033" data-name="Trazado 1034033" d="M31,20.816V23h2V21h2V18a3,3,0,0,0-3-3,1,1,0,0,1-1-1V13h1a1,1,0,0,1,1,1v1h2V14a3,3,0,0,0-2-2.816V9H31v2H29v3a3,3,0,0,0,3,3,1,1,0,0,1,1,1v1H32a1,1,0,0,1-1-1V17H29v1A3,3,0,0,0,31,20.816Z"/>
        <path id="Trazado_1034034" data-name="Trazado 1034034" d="M37.757,33h8.485v2H37.757Z" transform="translate(-11.74 39.657) rotate(-45)"/>
        <circle id="Elipse_12928" data-name="Elipse 12928" cx="1" cy="1" r="1" transform="translate(43 35)"/>
        <circle id="Elipse_12929" data-name="Elipse 12929" cx="1" cy="1" r="1" transform="translate(39 31)"/>
        <path id="Trazado_1034035" data-name="Trazado 1034035" d="M58.724,34.737,42,22.771,25.276,34.737l.7.828c.425.5.876.978,1.341,1.435H5V11H24.054a21.18,21.18,0,0,0-.461,21.111l.532.969L41,21.476V.9l-1.1.109a20.92,20.92,0,0,0-7.056,2H3A2,2,0,0,0,1,5V9a2,2,0,0,0,2,2V37a2,2,0,0,0,2,2h8.247L1.358,59.12A2.571,2.571,0,0,0,3.57,63H5.1a2.578,2.578,0,0,0,2.22-1.275L11.24,55H19v5.43A2.573,2.573,0,0,0,21.57,63h.859A2.573,2.573,0,0,0,25,60.43V55h7.759l3.923,6.725A2.582,2.582,0,0,0,38.9,63h1.527a2.572,2.572,0,0,0,2.213-3.879L31.426,40.139a20.978,20.978,0,0,0,26.6-4.574ZM39,20.424,24.842,30.16A19.093,19.093,0,0,1,39,3.137ZM3,5H29.53a20.89,20.89,0,0,0-4.095,4H3ZM23,39V53H21V39ZM5.59,60.717A.571.571,0,0,1,5.1,61H3.57A.571.571,0,0,1,3,60.43a.562.562,0,0,1,.08-.291L15.571,39h2.687ZM12.407,53,19,41.7V53ZM23,60.43a.571.571,0,0,1-.57.57h-.86a.571.571,0,0,1-.57-.57V55h2ZM25,53V41.7L31.592,53Zm16,7.43a.571.571,0,0,1-.57.57H38.9a.569.569,0,0,1-.492-.283L25.742,39h2.687L40.921,60.14A.564.564,0,0,1,41,60.43ZM42,41a18.945,18.945,0,0,1-13.771-5.916L42,25.229l13.771,9.854A18.942,18.942,0,0,1,42,41Z"/>
        <path id="Trazado_1034036" data-name="Trazado 1034036" d="M60.4,32.1A21.08,21.08,0,0,0,44.1,1L43,.9V21.477L59.871,33.068Zm-.3-15.792a18.864,18.864,0,0,1,.746,3.426L53.988,26.6l-2.474-1.7ZM49.838,23.748l-2.473-1.7L57.842,11.572a19.479,19.479,0,0,1,1.479,2.693ZM45,10.414l5.47-5.471a19.005,19.005,0,0,1,2.586,1.585L45,14.586Zm3.512-6.341L45,7.586V3.137A18.46,18.46,0,0,1,48.512,4.073ZM45,17.414,54.613,7.8a19.477,19.477,0,0,1,2.036,2.136L45.688,20.9,45,20.424ZM55.664,27.75l5.324-5.324a18.914,18.914,0,0,1-1.826,7.728Z"/>
        <path id="Trazado_1034037" data-name="Trazado 1034037" d="M7,35H21V33H19V21H17V33H15V25H13v8H11V29H9v4H7Z"/>
        <path id="Trazado_1034038" data-name="Trazado 1034038" d="M7,13h4v2H7Z"/>
        <path id="Trazado_1034039" data-name="Trazado 1034039" d="M13,13h6v2H13Z"/>
        <path id="Trazado_1034040" data-name="Trazado 1034040" d="M7,17H19v2H7Z"/>
        <path id="Trazado_1034041" data-name="Trazado 1034041" d="M44,45a3,3,0,1,0,3,3A3,3,0,0,0,44,45Zm0,4a1,1,0,1,1,1-1A1,1,0,0,1,44,49Z"/>
        <path id="Trazado_1034042" data-name="Trazado 1034042" d="M52,45a3,3,0,1,0,3,3A3,3,0,0,0,52,45Zm0,4a1,1,0,1,1,1-1A1,1,0,0,1,52,49Z"/>
        <path id="Trazado_1034043" data-name="Trazado 1034043" d="M60,45a3,3,0,1,0,3,3A3,3,0,0,0,60,45Zm0,4a1,1,0,1,1,1-1A1,1,0,0,1,60,49Z"/>
      </g>
    </g>
  </g>
</svg>
