<svg xmlns="http://www.w3.org/2000/svg" xmlns:xlink="http://www.w3.org/1999/xlink" width="108" height="108" viewBox="0 0 108 108">
  <defs>
    <filter id="Trazado_896985" x="0" y="0" width="108" height="108" filterUnits="userSpaceOnUse">
      <feOffset dy="3" input="SourceAlpha"/>
      <feGaussianBlur stdDeviation="3" result="blur"/>
      <feFlood flood-opacity="0.161"/>
      <feComposite operator="in" in2="blur"/>
      <feComposite in="SourceGraphic"/>
    </filter>
  </defs>
  <g id="Grupo_1178815" data-name="Grupo 1178815" transform="translate(-200.721 -1233.492)">
    <g id="Grupo_1178697" data-name="Grupo 1178697" transform="translate(-0.038 -1982.508)">
      <g id="Grupo_1177410" data-name="Grupo 1177410" transform="translate(-0.094 1727.448)">
        <g id="Grupo_1176700" data-name="Grupo 1176700" transform="translate(209.853 1494.552)">
          <g id="Grupo_1111318" data-name="Grupo 1111318" transform="translate(0 0)">
            <g id="Grupo_1109826" data-name="Grupo 1109826">
              <g id="Grupo_1098742" data-name="Grupo 1098742">
                <g transform="matrix(1, 0, 0, 1, -9, -6)" filter="url(#Trazado_896985)">
                  <g id="Trazado_896985-2" data-name="Trazado 896985" transform="translate(9 6)" fill="#f2ecfd" opacity="0.859">
                    <path d="M 45 88.00010681152344 C 39.19416046142578 88.00010681152344 33.56304168701172 86.86346435546875 28.2630672454834 84.62177276611328 C 23.14290618896484 82.45613098144531 18.54409408569336 79.35540008544922 14.59441375732422 75.40570831298828 C 10.64472007751465 71.45601654052734 7.543986797332764 66.85721588134766 5.378333568572998 61.73704147338867 C 3.136640071868896 56.43708038330078 2 50.80596160888672 2 45.00011825561523 C 2 39.19416046142578 3.136640071868896 33.56304168701172 5.378333568572998 28.26308059692383 C 7.543986797332764 23.14290618896484 10.64472007751465 18.54409408569336 14.59441375732422 14.59441375732422 C 18.54409408569336 10.64472007751465 23.14290618896484 7.543986797332764 28.26308059692383 5.378333568572998 C 33.56304168701172 3.136640071868896 39.19416046142578 2 45 2 C 50.80583953857422 2 56.43695831298828 3.136640071868896 61.73691940307617 5.378333568572998 C 66.85709381103516 7.543986797332764 71.45590972900391 10.64472007751465 75.40558624267578 14.59441375732422 C 79.35527801513672 18.54409408569336 82.45601654052734 23.14290618896484 84.62166595458984 28.26308059692383 C 86.86335754394531 33.56304168701172 88 39.19416046142578 88 45 C 88 50.80596160888672 86.86335754394531 56.43708038330078 84.62166595458984 61.73704147338867 C 82.45601654052734 66.85721588134766 79.35527801513672 71.45601654052734 75.40558624267578 75.40570831298828 C 71.45590972900391 79.35540008544922 66.85709381103516 82.45613098144531 61.73693466186523 84.62177276611328 C 56.43695831298828 86.86346435546875 50.80583953857422 88.00010681152344 45 88.00010681152344 Z" stroke="none"/>
                    <path d="M 45 3.999992370605469 C 39.46327590942383 3.999992370605469 34.09429168701172 5.083465576171875 29.04218292236328 7.220329284667969 C 24.160400390625 9.285148620605469 19.77527618408203 12.24195861816406 16.00861358642578 16.00862121582031 C 12.24196624755859 19.77528381347656 9.28515625 24.16040802001953 7.2203369140625 29.04217529296875 C 5.083473205566406 34.09428405761719 4 39.46328353881836 4 45.00011444091797 C 4 50.53683853149414 5.083473205566406 55.90582275390625 7.2203369140625 60.95793151855469 C 9.28515625 65.83971405029297 12.24195098876953 70.22482299804688 16.00861358642578 73.99148559570312 C 19.77527618408203 77.75814819335938 24.160400390625 80.71494293212891 29.04216766357422 82.77976226806641 C 34.09427642822266 84.9166259765625 39.46327590942383 86.00009918212891 45 86.00009918212891 C 50.53672409057617 86.00009918212891 55.90572357177734 84.9166259765625 60.95783233642578 82.77976226806641 C 65.839599609375 80.71494293212891 70.22472381591797 77.75814819335938 73.99138641357422 73.99148559570312 C 77.75804901123047 70.22482299804688 80.71484375 65.83971405029297 82.7796630859375 60.95793151855469 C 84.91651916503906 55.90582275390625 86 50.53683853149414 86 45.00000762939453 C 86 39.46328353881836 84.91651916503906 34.09428405761719 82.7796630859375 29.04217529296875 C 80.71484375 24.16040802001953 77.75803375244141 19.77528381347656 73.99138641357422 16.00862121582031 C 70.22472381591797 12.24195861816406 65.839599609375 9.285148620605469 60.95781707763672 7.220329284667969 C 55.90570831298828 5.083465576171875 50.53672409057617 3.999992370605469 45 3.999992370605469 M 45 -7.62939453125e-06 C 69.85281372070312 -7.62939453125e-06 90 20.14719390869141 90 45.00000762939453 L 90 45.00011444091797 C 90 69.85292816162109 69.85281372070312 90.00009918212891 45 90.00009918212891 C 20.14718627929688 90.00009918212891 0 69.85292816162109 0 45.00011444091797 L 0 45.00000762939453 C 0 20.14719390869141 20.14718627929688 -7.62939453125e-06 45 -7.62939453125e-06 Z" stroke="none" fill="#8454ee"/>
                  </g>
                </g>
              </g>
            </g>
          </g>
        </g>
      </g>
    </g>
    <g id="accounting_1730332" transform="translate(228.246 1258.018)">
      <path id="Trazado_1034052" data-name="Trazado 1034052" d="M8,8H45.577V48.993H8ZM8,8" transform="translate(-7.146 -7.146)" fill="#bcc3cc"/>
      <path id="Trazado_1034053" data-name="Trazado 1034053" d="M40,40H70.745v8.54H40Zm0,0" transform="translate(-35.73 -35.73)" fill="#8de2fc"/>
      <path id="Trazado_1034054" data-name="Trazado 1034054" d="M8,392H33.621v5.124H8Zm0,0" transform="translate(-7.146 -350.153)" fill="#5e6266"/>
      <path id="Trazado_1034055" data-name="Trazado 1034055" d="M8,392H31.059v5.124H8Zm0,0" transform="translate(-7.146 -350.153)" fill="#8d9299"/>
      <path id="Trazado_1034056" data-name="Trazado 1034056" d="M40,152h5.124v5.124H40Zm0,0" transform="translate(-35.73 -135.774)" fill="#b9846f"/>
      <path id="Trazado_1034057" data-name="Trazado 1034057" d="M40,152h2.562v5.124H40Zm0,0" transform="translate(-35.73 -135.774)" fill="#f7b094"/>
      <path id="Trazado_1034058" data-name="Trazado 1034058" d="M120,152h5.124v5.124H120Zm0,0" transform="translate(-107.19 -135.774)" fill="#b9846f"/>
      <path id="Trazado_1034059" data-name="Trazado 1034059" d="M120,152h2.562v5.124H120Zm0,0" transform="translate(-107.19 -135.774)" fill="#f7b094"/>
      <path id="Trazado_1034060" data-name="Trazado 1034060" d="M200,152h5.124v5.124H200Zm0,0" transform="translate(-178.65 -135.774)" fill="#b9846f"/>
      <path id="Trazado_1034061" data-name="Trazado 1034061" d="M200,152h2.562v5.124H200Zm0,0" transform="translate(-178.65 -135.774)" fill="#f7b094"/>
      <path id="Trazado_1034062" data-name="Trazado 1034062" d="M280,152h5.124v5.124H280Zm0,0" transform="translate(-250.109 -135.774)" fill="#b9846f"/>
      <path id="Trazado_1034063" data-name="Trazado 1034063" d="M280,152h2.562v5.124H280Zm0,0" transform="translate(-250.109 -135.774)" fill="#f7b094"/>
      <path id="Trazado_1034064" data-name="Trazado 1034064" d="M200,232h5.124v5.124H200Zm0,0" transform="translate(-178.65 -207.233)" fill="#b9846f"/>
      <path id="Trazado_1034065" data-name="Trazado 1034065" d="M200,232h2.562v5.124H200Zm0,0" transform="translate(-178.65 -207.233)" fill="#f7b094"/>
      <path id="Trazado_1034066" data-name="Trazado 1034066" d="M120,232h5.124v5.124H120Zm0,0" transform="translate(-107.19 -207.233)" fill="#b9846f"/>
      <path id="Trazado_1034067" data-name="Trazado 1034067" d="M120,232h2.562v5.124H120Zm0,0" transform="translate(-107.19 -207.233)" fill="#f7b094"/>
      <path id="Trazado_1034068" data-name="Trazado 1034068" d="M40,232h5.124v5.124H40Zm0,0" transform="translate(-35.73 -207.233)" fill="#b9846f"/>
      <path id="Trazado_1034069" data-name="Trazado 1034069" d="M40,232h2.562v5.124H40Zm0,0" transform="translate(-35.73 -207.233)" fill="#f7b094"/>
      <path id="Trazado_1034070" data-name="Trazado 1034070" d="M40,312h5.124v5.124H40Zm0,0" transform="translate(-35.73 -278.693)" fill="#b9846f"/>
      <path id="Trazado_1034071" data-name="Trazado 1034071" d="M40,312h2.562v5.124H40Zm0,0" transform="translate(-35.73 -278.693)" fill="#f7b094"/>
      <path id="Trazado_1034072" data-name="Trazado 1034072" d="M120,312h5.124v5.124H120Zm0,0" transform="translate(-107.19 -278.693)" fill="#b9846f"/>
      <path id="Trazado_1034073" data-name="Trazado 1034073" d="M120,312h2.562v5.124H120Zm0,0" transform="translate(-107.19 -278.693)" fill="#f7b094"/>
      <path id="Trazado_1034074" data-name="Trazado 1034074" d="M200,312h5.124v5.124H200Zm0,0" transform="translate(-178.65 -278.693)" fill="#b9846f"/>
      <path id="Trazado_1034075" data-name="Trazado 1034075" d="M200,312h2.562v5.124H200Zm0,0" transform="translate(-178.65 -278.693)" fill="#f7b094"/>
      <path id="Trazado_1034076" data-name="Trazado 1034076" d="M248,200h25.621v30.745H248Zm0,0" transform="translate(-221.525 -178.65)" fill="#bf9945"/>
      <path id="Trazado_1034077" data-name="Trazado 1034077" d="M248,200h23.059v30.745H248Zm0,0" transform="translate(-221.525 -178.65)" fill="#ffcc5c"/>
      <path id="Trazado_1034078" data-name="Trazado 1034078" d="M26.475,47.825H.854A.855.855,0,0,1,0,46.971V.854A.855.855,0,0,1,.854,0H38.431a.855.855,0,0,1,.854.854v20.5H37.577V1.708H1.708V46.117H26.475Zm0,0"/>
      <path id="Trazado_1034079" data-name="Trazado 1034079" d="M63.6,42.248H32.854A.855.855,0,0,1,32,41.394v-8.54A.855.855,0,0,1,32.854,32H63.6a.855.855,0,0,1,.854.854v8.54A.855.855,0,0,1,63.6,42.248ZM33.708,40.54H62.745V33.708H33.708Zm0,0" transform="translate(-28.584 -28.584)"/>
      <path id="Trazado_1034080" data-name="Trazado 1034080" d="M37.978,150.832H32.854a.855.855,0,0,1-.854-.854v-5.124a.855.855,0,0,1,.854-.854h5.124a.855.855,0,0,1,.854.854v5.124A.855.855,0,0,1,37.978,150.832Zm-4.27-1.708h3.416v-3.416H33.708Zm0,0" transform="translate(-28.584 -128.628)"/>
      <path id="Trazado_1034081" data-name="Trazado 1034081" d="M117.978,150.832h-5.124a.855.855,0,0,1-.854-.854v-5.124a.855.855,0,0,1,.854-.854h5.124a.855.855,0,0,1,.854.854v5.124A.855.855,0,0,1,117.978,150.832Zm-4.27-1.708h3.416v-3.416h-3.416Zm0,0" transform="translate(-100.044 -128.628)"/>
      <path id="Trazado_1034082" data-name="Trazado 1034082" d="M197.978,150.832h-5.124a.855.855,0,0,1-.854-.854v-5.124a.855.855,0,0,1,.854-.854h5.124a.855.855,0,0,1,.854.854v5.124A.855.855,0,0,1,197.978,150.832Zm-4.27-1.708h3.416v-3.416h-3.416Zm0,0" transform="translate(-171.504 -128.628)"/>
      <path id="Trazado_1034083" data-name="Trazado 1034083" d="M37.978,230.832H32.854a.855.855,0,0,1-.854-.854v-5.124a.855.855,0,0,1,.854-.854h5.124a.855.855,0,0,1,.854.854v5.124A.855.855,0,0,1,37.978,230.832Zm-4.27-1.708h3.416v-3.416H33.708Zm0,0" transform="translate(-28.584 -200.087)"/>
      <path id="Trazado_1034084" data-name="Trazado 1034084" d="M117.978,230.832h-5.124a.855.855,0,0,1-.854-.854v-5.124a.855.855,0,0,1,.854-.854h5.124a.855.855,0,0,1,.854.854v5.124A.855.855,0,0,1,117.978,230.832Zm-4.27-1.708h3.416v-3.416h-3.416Zm0,0" transform="translate(-100.044 -200.087)"/>
      <path id="Trazado_1034085" data-name="Trazado 1034085" d="M197.978,230.832h-5.124a.855.855,0,0,1-.854-.854v-5.124a.855.855,0,0,1,.854-.854h5.124a.855.855,0,0,1,.854.854v5.124A.855.855,0,0,1,197.978,230.832Zm-4.27-1.708h3.416v-3.416h-3.416Zm0,0" transform="translate(-171.504 -200.087)"/>
      <path id="Trazado_1034086" data-name="Trazado 1034086" d="M37.978,310.832H32.854a.855.855,0,0,1-.854-.854v-5.124a.855.855,0,0,1,.854-.854h5.124a.855.855,0,0,1,.854.854v5.124A.855.855,0,0,1,37.978,310.832Zm-4.27-1.708h3.416v-3.416H33.708Zm0,0" transform="translate(-28.584 -271.547)"/>
      <path id="Trazado_1034087" data-name="Trazado 1034087" d="M117.978,310.832h-5.124a.855.855,0,0,1-.854-.854v-5.124a.855.855,0,0,1,.854-.854h5.124a.855.855,0,0,1,.854.854v5.124A.855.855,0,0,1,117.978,310.832Zm-4.27-1.708h3.416v-3.416h-3.416Zm0,0" transform="translate(-100.044 -271.547)"/>
      <path id="Trazado_1034088" data-name="Trazado 1034088" d="M197.978,310.832h-5.124a.855.855,0,0,1-.854-.854v-5.124a.855.855,0,0,1,.854-.854h5.124a.855.855,0,0,1,.854.854v5.124A.855.855,0,0,1,197.978,310.832Zm-4.27-1.708h3.416v-3.416h-3.416Zm0,0" transform="translate(-171.504 -271.547)"/>
      <path id="Trazado_1034089" data-name="Trazado 1034089" d="M278.832,149.978h-1.708v-4.27h-3.416v4.27H272v-5.124a.855.855,0,0,1,.854-.854h5.124a.855.855,0,0,1,.854.854Zm0,0" transform="translate(-242.963 -128.628)"/>
      <path id="Trazado_1034090" data-name="Trazado 1034090" d="M8,384H33.621v1.708H8Zm0,0" transform="translate(-7.146 -343.007)"/>
      <path id="Trazado_1034091" data-name="Trazado 1034091" d="M288,64h1.708v3.416H288Zm0,0" transform="translate(-257.255 -57.168)"/>
      <path id="Trazado_1034092" data-name="Trazado 1034092" d="M256,64h1.708v3.416H256Zm0,0" transform="translate(-228.671 -57.168)"/>
      <path id="Trazado_1034093" data-name="Trazado 1034093" d="M224,64h1.708v3.416H224Zm0,0" transform="translate(-200.087 -57.168)"/>
      <path id="Trazado_1034094" data-name="Trazado 1034094" d="M266.475,224.453H240.854A.855.855,0,0,1,240,223.6V192.854a.855.855,0,0,1,.854-.854h25.621a.855.855,0,0,1,.854.854V223.6A.855.855,0,0,1,266.475,224.453Zm-24.767-1.708h23.913V193.708H241.708Zm0,0" transform="translate(-214.379 -171.504)"/>
      <path id="Trazado_1034095" data-name="Trazado 1034095" d="M280,240h5.124v1.708H280Zm0,0" transform="translate(-250.109 -214.379)"/>
      <path id="Trazado_1034096" data-name="Trazado 1034096" d="M280,432h5.124v1.708H280Zm0,0" transform="translate(-250.109 -385.883)"/>
      <path id="Trazado_1034097" data-name="Trazado 1034097" d="M344,240h5.124v1.708H344Zm0,0" transform="translate(-307.277 -214.379)"/>
      <path id="Trazado_1034098" data-name="Trazado 1034098" d="M360,224h1.708v5.124H360Zm0,0" transform="translate(-321.569 -200.087)"/>
      <path id="Trazado_1034099" data-name="Trazado 1034099" d="M410.34,229.757l3.416-3.417,1.208,1.208-3.416,3.416Zm0,0" transform="translate(-366.535 -202.178)"/>
      <path id="Trazado_1034100" data-name="Trazado 1034100" d="M410.34,227.555l1.208-1.208,3.416,3.416-1.208,1.208Zm0,0" transform="translate(-366.535 -202.184)"/>
      <path id="Trazado_1034101" data-name="Trazado 1034101" d="M280,288h18.788v1.708H280Zm0,0" transform="translate(-250.109 -257.255)"/>
      <path id="Trazado_1034102" data-name="Trazado 1034102" d="M296,320h15.372v1.708H296Zm0,0" transform="translate(-264.401 -285.839)"/>
      <path id="Trazado_1034103" data-name="Trazado 1034103" d="M280,352h18.788v1.708H280Zm0,0" transform="translate(-250.109 -314.423)"/>
      <path id="Trazado_1034104" data-name="Trazado 1034104" d="M296,384h15.372v1.708H296Zm0,0" transform="translate(-264.401 -343.007)"/>
      <path id="Trazado_1034105" data-name="Trazado 1034105" d="M344,432h5.124v1.708H344Zm0,0" transform="translate(-307.277 -385.883)"/>
      <path id="Trazado_1034106" data-name="Trazado 1034106" d="M360,416h1.708v5.124H360Zm0,0" transform="translate(-321.569 -371.591)"/>
      <path id="Trazado_1034107" data-name="Trazado 1034107" d="M410.34,421.756l3.416-3.416,1.208,1.208-3.416,3.416Zm0,0" transform="translate(-366.535 -373.681)"/>
      <path id="Trazado_1034108" data-name="Trazado 1034108" d="M410.34,419.555l1.208-1.208,3.416,3.416-1.208,1.208Zm0,0" transform="translate(-366.535 -373.688)"/>
    </g>
  </g>
</svg>
