<svg xmlns="http://www.w3.org/2000/svg" width="43.814" height="49.931" viewBox="0 0 43.814 49.931">
  <g id="audit_9483784" transform="translate(0.5 0.5)">
    <path id="Trazado_900523" data-name="Trazado 900523" d="M56.167,292.613a9.185,9.185,0,1,1-1.982-2.9" transform="translate(-38.562 -259.539)" fill="none" stroke="#000" stroke-linecap="round" stroke-linejoin="round" stroke-miterlimit="10" stroke-width="1"/>
    <path id="Trazado_900524" data-name="Trazado 900524" d="M107.8,333.486v-.661a2.275,2.275,0,0,0-2.275-2.275H104.2a2.275,2.275,0,0,0-2.275,2.275h0a2.275,2.275,0,0,0,1.555,2.158l2.761.92a2.275,2.275,0,0,1,1.555,2.158h0a2.275,2.275,0,0,1-2.275,2.275H104.2a2.275,2.275,0,0,1-2.275-2.275V337.4" transform="translate(-95.69 -298.745)" fill="none" stroke="#000" stroke-linecap="round" stroke-linejoin="round" stroke-miterlimit="10" stroke-width="1"/>
    <line id="Línea_563" data-name="Línea 563" y2="12.233" transform="translate(9.175 30.582)" fill="none" stroke="#000" stroke-linecap="round" stroke-linejoin="round" stroke-miterlimit="10" stroke-width="1"/>
    <line id="Línea_564" data-name="Línea 564" x2="27.523" transform="translate(10.704 18.349)" fill="none" stroke="#000" stroke-linecap="round" stroke-linejoin="round" stroke-miterlimit="10" stroke-width="1"/>
    <line id="Línea_565" data-name="Línea 565" y2="13.46" transform="translate(13.762 15.291)" fill="none" stroke="#000" stroke-linecap="round" stroke-linejoin="round" stroke-miterlimit="10" stroke-width="1"/>
    <line id="Línea_566" data-name="Línea 566" y2="27.524" transform="translate(21.407 15.291)" fill="none" stroke="#000" stroke-linecap="round" stroke-linejoin="round" stroke-miterlimit="10" stroke-width="1"/>
    <line id="Línea_567" data-name="Línea 567" y2="7.678" transform="translate(29.053 35.136)" fill="none" stroke="#000" stroke-linecap="round" stroke-linejoin="round" stroke-miterlimit="10" stroke-width="1"/>
    <line id="Línea_568" data-name="Línea 568" y2="3.093" transform="translate(29.053 15.291)" fill="none" stroke="#000" stroke-linecap="round" stroke-linejoin="round" stroke-miterlimit="10" stroke-width="1"/>
    <line id="Línea_569" data-name="Línea 569" x2="6.116" transform="translate(10.704 12.233)" fill="none" stroke="#000" stroke-linecap="round" stroke-linejoin="round" stroke-miterlimit="10" stroke-width="1"/>
    <path id="Trazado_900525" data-name="Trazado 900525" d="M271.456,211.453l-1.6-2.769a8.41,8.41,0,1,0-2.648,1.529l1.6,2.769" transform="translate(-234.581 -175.526)" fill="none" stroke="#000" stroke-linecap="round" stroke-linejoin="round" stroke-miterlimit="10" stroke-width="1"/>
    <path id="Trazado_900526" data-name="Trazado 900526" d="M385.3,371.384l-2.694,1.555a.738.738,0,0,0-.27,1.009l4.613,7.991a.738.738,0,0,0,1.009.27l2.694-1.555a.738.738,0,0,0,.27-1.009l-4.613-7.991A.738.738,0,0,0,385.3,371.384Z" transform="translate(-348.398 -335.47)" fill="none" stroke="#000" stroke-linecap="round" stroke-linejoin="round" stroke-miterlimit="10" stroke-width="1"/>
    <ellipse id="Elipse_12756" data-name="Elipse 12756" cx="5.352" cy="5.352" rx="5.352" ry="5.352" transform="translate(24.465 21.409)" fill="none" stroke="#000" stroke-linecap="round" stroke-linejoin="round" stroke-miterlimit="10" stroke-width="1"/>
    <path id="Trazado_900527" data-name="Trazado 900527" d="M318.125,258.308a2.3,2.3,0,0,1,2.294-2.294" transform="translate(-290.602 -231.547)" fill="none" stroke="#000" stroke-linecap="round" stroke-linejoin="round" stroke-miterlimit="10" stroke-width="1"/>
    <line id="Línea_570" data-name="Línea 570" y1="8.799" transform="translate(42.814 15.801)" fill="none" stroke="#000" stroke-linecap="round" stroke-linejoin="round" stroke-miterlimit="10" stroke-width="1"/>
    <path id="Trazado_900528" data-name="Trazado 900528" d="M100.688,309.67v2.1a1.477,1.477,0,0,0,1.477,1.477h33.744a1.477,1.477,0,0,0,1.477-1.477V292.365" transform="translate(-94.572 -264.319)" fill="none" stroke="#000" stroke-linecap="round" stroke-linejoin="round" stroke-miterlimit="10" stroke-width="1"/>
    <path id="Trazado_900529" data-name="Trazado 900529" d="M121.585,7.5h-19.42a1.477,1.477,0,0,0-1.477,1.477V35.546" transform="translate(-94.572 -7.5)" fill="none" stroke="#000" stroke-linecap="round" stroke-linejoin="round" stroke-miterlimit="10" stroke-width="1"/>
    <line id="Línea_571" data-name="Línea 571" x2="14.903" transform="translate(17.208 9.175)" fill="none" stroke="#000" stroke-linecap="round" stroke-linejoin="round" stroke-miterlimit="10" stroke-width="1"/>
    <path id="Trazado_900530" data-name="Trazado 900530" d="M168.428,54.094H148.512a1.231,1.231,0,0,0-1.231,1.231v2.126a1.231,1.231,0,0,0,1.231,1.231h1.827" transform="translate(-136.577 -49.507)" fill="none" stroke="#000" stroke-linecap="round" stroke-linejoin="round" stroke-miterlimit="10" stroke-width="1"/>
    <path id="Trazado_900531" data-name="Trazado 900531" d="M298.312,11.1a12.306,12.306,0,0,0-8.7-3.6h-1.3a6.4,6.4,0,0,1,6.4,6.4v2.827a1.477,1.477,0,0,0,1.477,1.477h2.827a6.4,6.4,0,0,1,6.4,6.4V23.3a12.307,12.307,0,0,0-3.6-8.7Z" transform="translate(-262.597 -7.5)" fill="none" stroke="#000" stroke-linecap="round" stroke-linejoin="round" stroke-miterlimit="10" stroke-width="1"/>
    <line id="Línea_572" data-name="Línea 572" x2="20.425" transform="translate(16.013 42.814)" fill="none" stroke="#000" stroke-linecap="round" stroke-linejoin="round" stroke-miterlimit="10" stroke-width="1"/>
    <path id="Trazado_900532" data-name="Trazado 900532" d="M174.8,184.261V162.812H147.281v12.36" transform="translate(-136.577 -147.521)" fill="none" stroke="#000" stroke-linecap="round" stroke-linejoin="round" stroke-miterlimit="10" stroke-width="1"/>
    <path id="Trazado_900533" data-name="Trazado 900533" d="M341.041,442.375h-7.385v3.058h9.151" transform="translate(-304.603 -399.561)" fill="none" stroke="#000" stroke-linecap="round" stroke-linejoin="round" stroke-miterlimit="10" stroke-width="1"/>
  </g>
</svg>
